<?xml version="1.0" standalone="no"?>
<!DOCTYPE svg PUBLIC "-//W3C//DTD SVG 20010904//EN"
 "http://www.w3.org/TR/2001/REC-SVG-20010904/DTD/svg10.dtd">
<svg version="1.0" xmlns="http://www.w3.org/2000/svg"
 width="200.000000pt" height="200.000000pt" viewBox="0 0 200.000000 200.000000"
 preserveAspectRatio="xMidYMid meet">
<metadata>
Created by potrace 1.15, written by Peter Selinger 2001-2017
</metadata>
<g transform="translate(0.000000,200.000000) scale(0.100000,-0.100000)"
fill="#000000" stroke="none">
<path d="M660 1965 c-320 -68 -545 -272 -632 -572 -20 -68 -23 -100 -23 -253
1 -148 4 -187 23 -254 53 -190 168 -369 323 -503 352 -305 755 -411 1111 -293
144 48 195 91 224 187 22 73 17 120 -27 243 -85 240 -92 278 -64 345 30 74 75
56 150 -59 29 -46 64 -91 77 -100 47 -33 124 -10 155 47 15 27 18 57 18 182
-1 137 -3 157 -29 235 -100 301 -329 560 -621 701 -161 78 -259 100 -455 105
-116 2 -184 -1 -230 -11z m55 -264 c75 -34 117 -110 100 -178 -12 -48 -46 -93
-86 -113 -164 -84 -320 130 -187 257 57 53 109 63 173 34z m562 -24 c71 -48
95 -151 50 -218 -66 -98 -194 -106 -268 -16 -113 140 68 333 218 234z m-826
-440 c37 -24 79 -97 79 -137 0 -40 -42 -113 -79 -137 -47 -32 -125 -32 -172 0
-43 29 -79 91 -79 137 0 46 36 108 79 137 47 32 125 32 172 0z m238 -427 c91
-46 117 -166 53 -241 -64 -77 -162 -86 -233 -22 -142 128 10 350 180 263z"/>
</g>
</svg>
