<?xml version="1.0" standalone="no"?>
<!DOCTYPE svg PUBLIC "-//W3C//DTD SVG 20010904//EN"
 "http://www.w3.org/TR/2001/REC-SVG-20010904/DTD/svg10.dtd">
<svg version="1.0" xmlns="http://www.w3.org/2000/svg"
 width="254.000000pt" height="275.000000pt" viewBox="0 0 254.000000 275.000000"
 preserveAspectRatio="xMidYMid meet">
<metadata>
Created by potrace 1.15, written by Peter Selinger 2001-2017
</metadata>
<g transform="translate(0.000000,275.000000) scale(0.100000,-0.100000)"
fill="#000000" stroke="none">
<path d="M1270 2655 l0 -95 -635 0 -635 0 0 -1280 0 -1280 960 0 960 0 0 875
0 875 310 0 310 0 0 500 0 500 -635 0 -635 0 0 -95z m1170 -405 l0 -400 -412
0 -413 0 -122 -122 -123 -123 0 523 0 522 535 0 535 0 0 -400z m-1170 -250 l0
-400 -475 0 -475 0 0 -80 0 -80 640 0 640 0 0 80 0 80 -47 0 -47 0 74 75 c74
74 75 75 127 75 l53 0 0 -795 0 -795 -800 0 -800 0 0 1120 0 1120 555 0 555 0
0 -400z"/>
<path d="M1540 2430 l0 -50 410 0 410 0 0 50 0 50 -410 0 -410 0 0 -50z"/>
<path d="M1540 2250 l0 -50 410 0 410 0 0 50 0 50 -410 0 -410 0 0 -50z"/>
<path d="M1540 2070 l0 -50 275 0 275 0 0 50 0 50 -275 0 -275 0 0 -50z"/>
<path d="M320 1200 l0 -80 640 0 640 0 0 80 0 80 -640 0 -640 0 0 -80z"/>
<path d="M320 880 l0 -80 480 0 480 0 0 80 0 80 -480 0 -480 0 0 -80z"/>
</g>
</svg>
