<svg id="Layer_1" data-name="Layer 1" xmlns="http://www.w3.org/2000/svg" xmlns:xlink="http://www.w3.org/1999/xlink" viewBox="0 0 655.79 435.09"><defs><style>.cls-1,.cls-11,.cls-6,.cls-8,.cls-9{fill:none;}.cls-2{fill:#f3e635;}.cls-3{fill:#f39d33;}.cls-4{fill:#95c93d;}.cls-5{fill:#5d9aca;}.cls-11,.cls-6,.cls-8,.cls-9{stroke:#231f20;}.cls-6,.cls-8{stroke-miterlimit:10;}.cls-11,.cls-6{stroke-width:0.72px;}.cls-7{fill:#d1477b;}.cls-11,.cls-8,.cls-9{stroke-linecap:round;}.cls-8{stroke-width:0;}.cls-11,.cls-9{stroke-linejoin:round;}.cls-9{stroke-width:1.5px;}.cls-10{clip-path:url(#clip-path);}.cls-12{font-size:9.9px;}.cls-12,.cls-13,.cls-17{font-family:OpenSans, Open Sans;}.cls-13{font-size:7.56px;}.cls-14{fill:#fff;}.cls-15{font-size:4.9px;fill:#231f20;font-family:RobotoCondensed-Bold, Roboto Condensed;font-weight:700;}.cls-16{letter-spacing:0em;}.cls-17{font-size:7.58px;}</style><clipPath id="clip-path" transform="translate(-72.83 -67.25)"><rect class="cls-1" width="792" height="576"/></clipPath></defs><title>Exhibit Hall Mon Final</title><path class="cls-2" d="M449.91,379.43l65.2,21.76h-65.2Zm65.2,0h-65.2l65.2,21.76Z" transform="translate(-72.83 -67.25)"/><path class="cls-2" d="M449.91,401.19,515.11,423h-65.2Zm65.2,0h-65.2L515.11,423Z" transform="translate(-72.83 -67.25)"/><path class="cls-2" d="M275.89,314.14l43.44,43.53H275.89Zm43.44,0H275.89l43.44,43.53Z" transform="translate(-72.83 -67.25)"/><path class="cls-3" d="M341.1,101,376,135.76H341.1ZM376,101H341.1L376,135.76Z" transform="translate(-72.83 -67.25)"/><path class="cls-3" d="M254.13,101l21.76,21.76H254.13Zm21.76,0H254.13l21.76,21.76Z" transform="translate(-72.83 -67.25)"/><path class="cls-4" d="M85.68,144.49l21.77,21.77H85.68Zm21.77,0H85.68l21.77,21.77Z" transform="translate(-72.83 -67.25)"/><path class="cls-4" d="M85.68,166.26,107.45,188H85.68Zm21.77,0H85.68L107.45,188Z" transform="translate(-72.83 -67.25)"/><path class="cls-5" d="M194.24,379.43,216,401.19H194.24Zm21.76,0H194.24L216,401.19Z" transform="translate(-72.83 -67.25)"/><path class="cls-6" d="M194.24,379.43,216,401.19H194.24Zm21.76,0H194.24L216,401.19Z" transform="translate(-72.83 -67.25)"/><path class="cls-5" d="M85.68,335.9l21.77,21.77H85.68Zm21.77,0H85.68l21.77,21.77Z" transform="translate(-72.83 -67.25)"/><path class="cls-6" d="M85.68,335.9l21.77,21.77H85.68Zm21.77,0H85.68l21.77,21.77Z" transform="translate(-72.83 -67.25)"/><path class="cls-4" d="M85.69,101l43.52,32.64H85.69Zm43.52,0H85.69l43.52,32.64Z" transform="translate(-72.83 -67.25)"/><path class="cls-4" d="M129.21,101,151,122.73H129.21ZM151,101H129.21L151,122.73Z" transform="translate(-72.83 -67.25)"/><path class="cls-4" d="M151,101l21.77,21.76H151Zm21.77,0H151l21.77,21.76Z" transform="translate(-72.83 -67.25)"/><path class="cls-4" d="M190.13,101l32.64,43.52H190.13Zm32.64,0H190.13l32.64,43.52Z" transform="translate(-72.83 -67.25)"/><path class="cls-4" d="M201,155.38l21.76,21.76H201Zm21.76,0H201l21.76,21.76Z" transform="translate(-72.83 -67.25)"/><path class="cls-4" d="M179.25,177.14l43.52,43.52H179.25Zm43.52,0H179.25l43.52,43.52Z" transform="translate(-72.83 -67.25)"/><path class="cls-4" d="M172.74,220.66l50,50h-50Zm50,0h-50l50,50Z" transform="translate(-72.83 -67.25)"/><path class="cls-4" d="M85.68,188l21.77,21.76H85.68Zm21.77,0H85.68l21.77,21.76Z" transform="translate(-72.83 -67.25)"/><path class="cls-4" d="M85.68,209.78l21.77,43.44H85.68Zm21.77,0H85.68l21.77,43.44Z" transform="translate(-72.83 -67.25)"/><path class="cls-3" d="M275.89,248.94l43.44,43.44H275.89Zm43.44,0H275.89l43.44,43.44Z" transform="translate(-72.83 -67.25)"/><path class="cls-3" d="M440.14,161.89l21.76,87.05H440.14Zm21.76,0H440.14l21.76,87.05Z" transform="translate(-72.83 -67.25)"/><path class="cls-3" d="M275.89,101l65.21,21.76H275.89Zm65.21,0H275.89l65.21,21.76Z" transform="translate(-72.83 -67.25)"/><path class="cls-3" d="M232.37,122.73l21.76,108.81H232.37Zm21.76,0H232.37l21.76,108.81Z" transform="translate(-72.83 -67.25)"/><path class="cls-3" d="M373.74,248.94l21.76,43.44H373.74Zm21.76,0H373.74l21.76,43.44Z" transform="translate(-72.83 -67.25)"/><path class="cls-5" d="M172.48,379.43l21.76,21.76H172.48Zm21.76,0H172.48l21.76,21.76Z" transform="translate(-72.83 -67.25)"/><path class="cls-6" d="M172.48,379.43l21.76,21.76H172.48Zm21.76,0H172.48l21.76,21.76Z" transform="translate(-72.83 -67.25)"/><path class="cls-5" d="M172.48,401.19,194.24,423H172.48Zm21.76,0H172.48L194.24,423Z" transform="translate(-72.83 -67.25)"/><path class="cls-6" d="M172.48,401.19,194.24,423H172.48Zm21.76,0H172.48L194.24,423Z" transform="translate(-72.83 -67.25)"/><path class="cls-5" d="M194.24,401.19,216,423H194.24Zm21.76,0H194.24L216,423Z" transform="translate(-72.83 -67.25)"/><path class="cls-6" d="M194.24,401.19,216,423H194.24Zm21.76,0H194.24L216,423Z" transform="translate(-72.83 -67.25)"/><path class="cls-5" d="M194.24,357.67,216,379.43H194.24Zm21.76,0H194.24L216,379.43Z" transform="translate(-72.83 -67.25)"/><path class="cls-6" d="M194.24,357.67,216,379.43H194.24Zm21.76,0H194.24L216,379.43Z" transform="translate(-72.83 -67.25)"/><path class="cls-5" d="M172.48,357.67l21.76,21.76H172.48Zm21.76,0H172.48l21.76,21.76Z" transform="translate(-72.83 -67.25)"/><path class="cls-6" d="M172.48,357.67l21.76,21.76H172.48Zm21.76,0H172.48l21.76,21.76Z" transform="translate(-72.83 -67.25)"/><path class="cls-5" d="M172.48,314.14l21.76,21.76H172.48Zm21.76,0H172.48l21.76,21.76Z" transform="translate(-72.83 -67.25)"/><path class="cls-6" d="M172.48,314.14l21.76,21.76H172.48Zm21.76,0H172.48l21.76,21.76Z" transform="translate(-72.83 -67.25)"/><path class="cls-5" d="M194.24,314.14,216,335.9H194.24Zm21.76,0H194.24L216,335.9Zm-21.76-21.76L216,314.14H194.24Zm21.76,0H194.24L216,314.14Z" transform="translate(-72.83 -67.25)"/><path class="cls-6" d="M194.24,314.14,216,335.9H194.24Zm21.76,0H194.24L216,335.9Zm-21.76-21.76L216,314.14H194.24Zm21.76,0H194.24L216,314.14Z" transform="translate(-72.83 -67.25)"/><path class="cls-5" d="M172.48,292.38l21.76,21.76H172.48Zm21.76,0H172.48l21.76,21.76Z" transform="translate(-72.83 -67.25)"/><path class="cls-6" d="M172.48,292.38l21.76,21.76H172.48Zm21.76,0H172.48l21.76,21.76Z" transform="translate(-72.83 -67.25)"/><path class="cls-5" d="M85.68,303.26,107.45,325H85.68Zm21.77,0H85.68L107.45,325Z" transform="translate(-72.83 -67.25)"/><path class="cls-6" d="M85.68,303.26,107.45,325H85.68Zm21.77,0H85.68L107.45,325Z" transform="translate(-72.83 -67.25)"/><path class="cls-5" d="M85.68,314.14l21.77,21.76H85.68Zm21.77,0H85.68l21.77,21.76Z" transform="translate(-72.83 -67.25)"/><path class="cls-6" d="M85.68,314.14l21.77,21.76H85.68Zm21.77,0H85.68l21.77,21.76Z" transform="translate(-72.83 -67.25)"/><path class="cls-5" d="M85.68,357.67l21.77,21.76H85.68Zm21.77,0H85.68l21.77,21.76Z" transform="translate(-72.83 -67.25)"/><path class="cls-6" d="M85.68,357.67l21.77,21.76H85.68Zm21.77,0H85.68l21.77,21.76Z" transform="translate(-72.83 -67.25)"/><path class="cls-5" d="M85.68,379.43l21.77,21.76H85.68Zm21.77,0H85.68l21.77,21.76Z" transform="translate(-72.83 -67.25)"/><path class="cls-6" d="M85.68,379.43l21.77,21.76H85.68Zm21.77,0H85.68l21.77,21.76Z" transform="translate(-72.83 -67.25)"/><path class="cls-5" d="M85.68,401.19,107.45,423H85.68Zm21.77,0H85.68L107.45,423Z" transform="translate(-72.83 -67.25)"/><path class="cls-6" d="M85.68,401.19,107.45,423H85.68Zm21.77,0H85.68L107.45,423Z" transform="translate(-72.83 -67.25)"/><path class="cls-5" d="M85.68,423l21.77,21.77H85.68Zm21.77,0H85.68l21.77,21.77Z" transform="translate(-72.83 -67.25)"/><path class="cls-6" d="M85.68,423l21.77,21.77H85.68Zm21.77,0H85.68l21.77,21.77Z" transform="translate(-72.83 -67.25)"/><path class="cls-5" d="M85.68,292.38l21.77,10.88H85.68Zm21.77,0H85.68l21.77,10.88Z" transform="translate(-72.83 -67.25)"/><path class="cls-6" d="M85.68,292.38l21.77,10.88H85.68Zm21.77,0H85.68l21.77,10.88Z" transform="translate(-72.83 -67.25)"/><path class="cls-2" d="M362.86,314.14l43.52,43.53H362.86Zm43.52,0H362.86l43.52,43.53Z" transform="translate(-72.83 -67.25)"/><path class="cls-2" d="M275.89,379.43,319.33,423H275.89Zm43.44,0H275.89L319.33,423Z" transform="translate(-72.83 -67.25)"/><path class="cls-2" d="M362.86,379.43,406.38,423H362.86Zm43.52,0H362.86L406.38,423Z" transform="translate(-72.83 -67.25)"/><path class="cls-2" d="M449.91,314.14l43.52,43.53H449.91Zm43.52,0H449.91l43.52,43.53Z" transform="translate(-72.83 -67.25)"/><path class="cls-2" d="M534.22,447.89l65.2,21.76h-65.2Zm65.2,0h-65.2l65.2,21.76Z" transform="translate(-72.83 -67.25)"/><path class="cls-7" d="M537.56,292.38l21.76,21.76H537.56Zm21.76,0H537.56l21.76,21.76Z" transform="translate(-72.83 -67.25)"/><path class="cls-6" d="M537.56,292.38l21.76,21.76H537.56Zm21.76,0H537.56l21.76,21.76Z" transform="translate(-72.83 -67.25)"/><path class="cls-7" d="M589.74,292.38l21.76,21.76H589.74Zm21.76,0H589.74l21.76,21.76Z" transform="translate(-72.83 -67.25)"/><path class="cls-6" d="M589.74,292.38l21.76,21.76H589.74Zm21.76,0H589.74l21.76,21.76Z" transform="translate(-72.83 -67.25)"/><path class="cls-7" d="M641.92,292.38l21.76,21.76H641.92Zm21.76,0H641.92l21.76,21.76Z" transform="translate(-72.83 -67.25)"/><path class="cls-6" d="M641.92,292.38l21.76,21.76H641.92Zm21.76,0H641.92l21.76,21.76Z" transform="translate(-72.83 -67.25)"/><path class="cls-7" d="M641.92,335.9l21.76,21.77H641.92Zm21.76,0H641.92l21.76,21.77Z" transform="translate(-72.83 -67.25)"/><path class="cls-6" d="M641.92,335.9l21.76,21.77H641.92Zm21.76,0H641.92l21.76,21.77Z" transform="translate(-72.83 -67.25)"/><path class="cls-7" d="M589.74,335.9l21.76,21.77H589.74Zm21.76,0H589.74l21.76,21.77Z" transform="translate(-72.83 -67.25)"/><path class="cls-6" d="M589.74,335.9l21.76,21.77H589.74Zm21.76,0H589.74l21.76,21.77Z" transform="translate(-72.83 -67.25)"/><path class="cls-7" d="M537.56,335.9l21.76,21.77H537.56Zm21.76,0H537.56l21.76,21.77Z" transform="translate(-72.83 -67.25)"/><path class="cls-6" d="M537.56,335.9l21.76,21.77H537.56Zm21.76,0H537.56l21.76,21.77Z" transform="translate(-72.83 -67.25)"/><path d="M653.31,264.79h0Z" transform="translate(-72.83 -67.25)"/><path d="M653.31,264.79h0Z" transform="translate(-72.83 -67.25)"/><polygon points="580.48 197.54 580.74 197.54 581.68 197.54 580.48 197.54"/><path class="cls-8" d="M654.51,264.79h0Z" transform="translate(-72.83 -67.25)"/><path class="cls-8" d="M653.31,264.79h0Z" transform="translate(-72.83 -67.25)"/><polygon class="cls-8" points="580.74 197.54 580.48 197.54 581.68 197.54 580.74 197.54"/><polygon points="579.88 197.45 581.68 197.54 582.02 197.45 579.88 197.45"/><polygon points="580.48 197.54 581.68 197.54 579.88 197.45 580.48 197.54"/><polygon class="cls-8" points="581.68 197.54 579.88 197.45 582.02 197.45 581.68 197.54"/><polygon class="cls-8" points="580.48 197.54 581.68 197.54 579.88 197.45 580.48 197.54"/><polygon points="579.45 197.28 582.02 197.45 582.62 197.28 579.45 197.28"/><polygon points="579.88 197.45 582.02 197.45 579.45 197.28 579.88 197.45"/><polygon class="cls-8" points="582.02 197.45 579.45 197.28 582.62 197.28 582.02 197.45"/><polygon class="cls-8" points="579.88 197.45 582.02 197.45 579.45 197.28 579.88 197.45"/><polygon points="578.94 197.11 582.62 197.28 582.97 197.11 578.94 197.11"/><polygon points="579.45 197.28 582.62 197.28 578.94 197.11 579.45 197.28"/><polygon class="cls-8" points="582.62 197.28 578.94 197.11 582.97 197.11 582.62 197.28"/><polygon class="cls-8" points="579.45 197.28 582.62 197.28 578.94 197.11 579.45 197.28"/><polygon points="578.6 196.94 582.97 197.11 583.48 196.94 578.6 196.94"/><polygon points="578.94 197.11 582.97 197.11 578.6 196.94 578.94 197.11"/><polygon class="cls-8" points="582.97 197.11 578.6 196.94 583.48 196.94 582.97 197.11"/><polygon class="cls-8" points="578.94 197.11 582.97 197.11 578.6 196.94 578.94 197.11"/><polygon points="578.17 196.68 583.48 196.94 583.82 196.68 578.17 196.68"/><polygon points="578.6 196.94 583.48 196.94 578.17 196.68 578.6 196.94"/><polygon class="cls-8" points="583.48 196.94 578.17 196.68 583.82 196.68 583.48 196.94"/><polygon class="cls-8" points="578.6 196.94 583.48 196.94 578.17 196.68 578.6 196.94"/><polygon points="577.82 196.43 583.82 196.68 584.16 196.43 577.82 196.43"/><polygon points="578.17 196.68 583.82 196.68 577.82 196.43 578.17 196.68"/><polygon class="cls-8" points="583.82 196.68 577.83 196.43 584.16 196.43 583.82 196.68"/><polygon class="cls-8" points="578.17 196.68 583.82 196.68 577.82 196.43 578.17 196.68"/><polygon points="577.48 196.08 584.16 196.43 584.51 196.08 577.48 196.08"/><polygon points="577.82 196.43 584.16 196.43 577.48 196.08 577.82 196.43"/><polygon class="cls-8" points="584.16 196.43 577.48 196.08 584.51 196.08 584.16 196.43"/><polygon class="cls-8" points="577.83 196.43 584.16 196.43 577.48 196.08 577.83 196.43"/><polygon points="577.14 195.74 584.51 196.08 584.85 195.74 577.14 195.74"/><polygon points="577.48 196.08 584.51 196.08 577.14 195.74 577.48 196.08"/><polygon class="cls-8" points="584.51 196.08 577.14 195.74 584.85 195.74 584.51 196.08"/><polygon class="cls-8" points="577.48 196.08 584.51 196.08 577.14 195.74 577.48 196.08"/><polygon points="576.88 195.31 584.85 195.74 585.11 195.31 576.88 195.31"/><polygon points="577.14 195.74 584.85 195.74 576.88 195.31 577.14 195.74"/><polygon class="cls-8" points="584.85 195.74 576.88 195.31 585.11 195.31 584.85 195.74"/><polygon class="cls-8" points="577.14 195.74 584.85 195.74 576.88 195.31 577.14 195.74"/><polygon points="576.71 194.97 585.11 195.31 585.36 194.97 576.71 194.97"/><polygon points="576.88 195.31 585.11 195.31 576.71 194.97 576.88 195.31"/><polygon class="cls-8" points="585.11 195.31 576.71 194.97 585.37 194.97 585.11 195.31"/><polygon class="cls-8" points="576.88 195.31 585.11 195.31 576.71 194.97 576.88 195.31"/><polygon points="576.45 194.54 585.36 194.97 585.53 194.54 576.45 194.54"/><polygon points="576.71 194.97 585.36 194.97 576.45 194.54 576.71 194.97"/><polygon class="cls-8" points="585.37 194.97 576.45 194.54 585.54 194.54 585.37 194.97"/><polygon class="cls-8" points="576.71 194.97 585.36 194.97 576.45 194.54 576.71 194.97"/><polygon points="576.37 194.03 585.53 194.54 585.71 194.03 576.37 194.03"/><polygon points="576.45 194.54 585.53 194.54 576.37 194.03 576.45 194.54"/><polygon class="cls-8" points="585.54 194.54 576.37 194.03 585.71 194.03 585.54 194.54"/><polygon class="cls-8" points="576.45 194.54 585.53 194.54 576.37 194.03 576.45 194.54"/><polygon points="576.2 193.6 585.71 194.03 585.79 193.6 576.2 193.6"/><polygon points="576.37 194.03 585.71 194.03 576.2 193.6 576.37 194.03"/><polygon class="cls-8" points="585.71 194.03 576.2 193.6 585.79 193.6 585.71 194.03"/><polygon class="cls-8" points="576.37 194.03 585.71 194.03 576.2 193.6 576.37 194.03"/><polygon points="576.11 193.17 585.79 193.6 585.88 193.17 576.11 193.17"/><polygon points="576.2 193.6 585.79 193.6 576.11 193.17 576.2 193.6"/><polygon class="cls-8" points="585.79 193.6 576.11 193.17 585.88 193.17 585.79 193.6"/><polygon class="cls-8" points="576.2 193.6 585.79 193.6 576.11 193.17 576.2 193.6"/><polygon points="576.11 192.66 585.88 193.17 585.88 192.66 576.11 192.66"/><polygon points="576.11 193.17 585.88 193.17 576.11 192.66 576.11 193.17"/><polygon class="cls-8" points="585.88 193.17 576.11 192.66 585.88 192.66 585.88 193.17"/><polygon class="cls-8" points="576.11 193.17 585.88 193.17 576.11 192.66 576.11 193.17"/><polygon points="576.11 192.23 585.88 192.65 585.88 192.23 576.11 192.23"/><polygon points="576.11 192.66 585.88 192.66 576.11 192.23 576.11 192.66"/><polygon class="cls-8" points="585.88 192.66 576.11 192.23 585.88 192.23 585.88 192.66"/><polygon class="cls-8" points="576.11 192.66 585.88 192.66 576.11 192.23 576.11 192.66"/><polygon points="576.2 191.8 585.88 192.23 585.79 191.8 576.2 191.8"/><polygon points="576.11 192.23 585.88 192.23 576.2 191.8 576.11 192.23"/><polygon class="cls-8" points="585.88 192.23 576.2 191.8 585.79 191.8 585.88 192.23"/><polygon class="cls-8" points="576.11 192.23 585.88 192.23 576.2 191.8 576.11 192.23"/><polygon points="576.37 191.28 585.79 191.8 585.71 191.28 576.37 191.28"/><polygon points="576.2 191.8 585.79 191.8 576.37 191.28 576.2 191.8"/><polygon class="cls-8" points="585.79 191.8 576.37 191.28 585.71 191.28 585.79 191.8"/><polygon class="cls-8" points="576.2 191.8 585.79 191.8 576.37 191.28 576.2 191.8"/><polygon points="576.45 190.86 585.71 191.28 585.53 190.86 576.45 190.86"/><polygon points="576.37 191.28 585.71 191.28 576.45 190.86 576.37 191.28"/><polygon class="cls-8" points="585.71 191.28 576.45 190.86 585.53 190.86 585.71 191.28"/><polygon class="cls-8" points="576.37 191.28 585.71 191.28 576.45 190.86 576.37 191.28"/><polygon points="576.71 190.43 585.53 190.85 585.36 190.43 576.71 190.43"/><polygon points="576.45 190.86 585.53 190.86 576.71 190.43 576.45 190.86"/><polygon class="cls-8" points="585.54 190.86 576.71 190.43 585.37 190.43 585.54 190.86"/><polygon class="cls-8" points="576.45 190.86 585.53 190.86 576.71 190.43 576.45 190.86"/><polygon points="576.88 190.08 585.36 190.43 585.11 190.08 576.88 190.08"/><polygon points="576.71 190.43 585.36 190.43 576.88 190.08 576.71 190.43"/><polygon class="cls-8" points="585.37 190.43 576.88 190.08 585.11 190.08 585.37 190.43"/><polygon class="cls-8" points="576.71 190.43 585.36 190.43 576.88 190.08 576.71 190.43"/><polygon points="577.14 189.66 585.11 190.08 584.85 189.66 577.14 189.66"/><polygon points="576.88 190.08 585.11 190.08 577.14 189.66 576.88 190.08"/><polygon class="cls-8" points="585.11 190.09 577.14 189.66 584.85 189.66 585.11 190.09"/><polygon class="cls-8" points="576.88 190.09 585.11 190.09 577.14 189.66 576.88 190.09"/><polygon points="577.48 189.31 584.85 189.66 584.51 189.31 577.48 189.31"/><polygon points="577.14 189.66 584.85 189.66 577.48 189.31 577.14 189.66"/><polygon class="cls-8" points="584.85 189.66 577.48 189.31 584.51 189.31 584.85 189.66"/><polygon class="cls-8" points="577.14 189.66 584.85 189.66 577.48 189.31 577.14 189.66"/><polygon points="577.82 188.97 584.51 189.31 584.16 188.97 577.82 188.97"/><polygon points="577.48 189.31 584.51 189.31 577.82 188.97 577.48 189.31"/><polygon class="cls-8" points="584.51 189.31 577.82 188.97 584.16 188.97 584.51 189.31"/><polygon class="cls-8" points="577.48 189.31 584.51 189.31 577.83 188.97 577.48 189.31"/><polygon points="578.17 188.71 584.16 188.97 583.82 188.71 578.17 188.71"/><polygon points="577.82 188.97 584.16 188.97 578.17 188.71 577.82 188.97"/><polygon class="cls-8" points="584.16 188.97 578.17 188.71 583.82 188.71 584.16 188.97"/><polygon class="cls-8" points="577.83 188.97 584.16 188.97 578.17 188.71 577.83 188.97"/><polygon points="578.6 188.46 583.82 188.71 583.48 188.46 578.6 188.46"/><polygon points="578.17 188.71 583.82 188.71 578.6 188.46 578.17 188.71"/><polygon class="cls-8" points="583.82 188.71 578.6 188.46 583.48 188.46 583.82 188.71"/><polygon class="cls-8" points="578.17 188.71 583.82 188.71 578.6 188.46 578.17 188.71"/><polygon points="578.94 188.2 583.48 188.46 582.97 188.2 578.94 188.2"/><polygon points="578.6 188.46 583.48 188.46 578.94 188.2 578.6 188.46"/><polygon class="cls-8" points="583.48 188.46 578.94 188.2 582.97 188.2 583.48 188.46"/><polygon class="cls-8" points="578.6 188.46 583.48 188.46 578.94 188.2 578.6 188.46"/><polygon points="579.45 188.03 582.97 188.2 582.62 188.03 579.45 188.03"/><polygon points="578.94 188.2 582.97 188.2 579.45 188.03 578.94 188.2"/><polygon class="cls-8" points="582.97 188.2 579.45 188.03 582.62 188.03 582.97 188.2"/><polygon class="cls-8" points="578.94 188.2 582.97 188.2 579.45 188.03 578.94 188.2"/><polygon points="579.88 187.94 582.62 188.03 582.02 187.94 579.88 187.94"/><polygon points="579.45 188.03 582.62 188.03 579.88 187.94 579.45 188.03"/><polygon class="cls-8" points="582.62 188.03 579.88 187.94 582.02 187.94 582.62 188.03"/><polygon class="cls-8" points="579.45 188.03 582.62 188.03 579.88 187.94 579.45 188.03"/><polygon points="580.48 187.86 582.02 187.94 581.68 187.86 580.48 187.86"/><polygon points="579.88 187.94 582.02 187.94 580.48 187.86 579.88 187.94"/><polygon class="cls-8" points="582.02 187.94 580.48 187.86 581.68 187.86 582.02 187.94"/><polygon class="cls-8" points="579.88 187.94 582.02 187.94 580.48 187.86 579.88 187.94"/><polygon points="580.57 187.86 581.42 187.86 580.74 187.77 580.57 187.86"/><polygon points="580.57 187.86 581.42 187.86 581.68 187.86 580.57 187.86"/><polygon class="cls-8" points="581.42 187.86 580.57 187.86 580.74 187.77 581.42 187.86"/><polygon class="cls-8" points="581.68 187.86 581.42 187.86 580.57 187.86 581.68 187.86"/><polygon points="580.57 187.86 580.48 187.86 581.68 187.86 580.57 187.86"/><polygon class="cls-8" points="581.68 187.86 580.48 187.86 580.57 187.86 581.68 187.86"/><path d="M614.59,453.8h0Z" transform="translate(-72.83 -67.25)"/><path class="cls-8" d="M614.67,453.8h0Z" transform="translate(-72.83 -67.25)"/><path d="M614.59,452.6h0Z" transform="translate(-72.83 -67.25)"/><path class="cls-8" d="M614.67,452.6h0Z" transform="translate(-72.83 -67.25)"/><line class="cls-9" x1="539.95" y1="404.38" x2="539.95" y2="387.42"/><g class="cls-10"><path class="cls-11" d="M653.87,264.79a4.93,4.93,0,1,0-4.93-4.93,4.93,4.93,0,0,0,4.93,4.93" transform="translate(-72.83 -67.25)"/><polygon points="655.79 388.01 654.34 15.02 655.79 16.6 655.79 388.01"/><polygon points="654.34 388.01 655.79 388.01 654.34 15.02 654.34 388.01"/><polygon points="655.78 387.99 654.32 10.92 655.78 10.94 655.78 387.99"/><polygon class="cls-8" points="655.78 387.99 654.32 10.92 655.78 10.94 655.78 387.99"/><polygon points="0 10.74 1.46 404.92 0 404.92 0 10.74"/><polygon points="1.46 10.74 0 10.74 1.46 405.57 1.46 10.74"/><line class="cls-8" y1="10.74" x2="1.46" y2="403.24"/><polygon class="cls-8" points="1.46 10.74 0 10.74 1.46 379.56 1.46 10.74"/><polyline class="cls-11" points="32.99 187.6 30.84 187.94 28.62 187.34 26.48 187.94 24.33 187.34 22.11 187.94 19.96 187.34 17.82 187.94 15.59 187.34 13.45 187.94 11.22 187.6 10.97 185.46 11.57 183.32 10.97 181.09 11.57 178.95 10.97 176.8 11.57 174.58 10.97 172.43 11.57 170.21 10.97 168.06 11.22 165.92 10.97 163.69 11.57 161.55 10.97 159.33 11.57 157.18 10.97 155.04 11.57 152.81 10.97 150.67 11.57 148.44 10.97 146.3 11.22 144.16"/><polyline class="cls-11" points="11.22 122.4 10.97 120.17 11.57 118.03 10.97 115.89 11.57 113.66 10.97 111.52 11.57 109.29 10.97 107.15 11.57 105 10.97 102.78 11.22 100.63 10.97 98.49 11.57 96.27 10.97 94.12 11.57 91.9 10.97 89.75 11.57 87.61 10.97 85.38 11.57 83.24 10.97 81.01 11.22 78.87 10.97 76.73 11.57 74.5 10.97 72.36 11.57 70.13 10.97 67.99 11.57 65.85 10.97 63.62 11.57 61.48 10.97 59.25 11.22 57.11 10.97 54.97 11.57 52.74 10.97 50.6 11.57 48.46 10.97 46.23 11.57 44.09 10.97 41.86 11.57 39.72 10.97 37.57 11.22 32.09 13.45 31.84 15.59 32.35 17.82 31.84 19.96 32.35 22.11 31.84 24.33 32.35 26.48 31.84 28.62 32.35 30.84 31.84 32.99 32.09 35.22 31.84 37.36 32.35 39.5 31.84 41.73 32.35 43.87 31.84 46.1 32.35 48.24 31.84 50.38 32.35 52.61 31.84 54.75 32.09 56.98 31.84 59.12 32.35 61.26 31.84 63.49 32.35 65.63 31.84 67.77 32.35 70 31.84 72.14 32.35 74.37 31.84 76.51 32.09 78.65 31.84 80.88 32.35 83.02 31.84 85.25 32.35 87.39 31.84 89.53 32.35 91.76 31.84 93.91 32.35 96.05 31.84 98.28 32.09 100.42 31.84 102.64 32.35 104.79 31.84 106.93 32.35 109.16 31.84 111.3 32.35 113.53 31.84 115.67 32.35 117.81 31.84 120.04 32.09 122.18 31.84 124.41 32.35 126.55 31.84 128.69 32.35 130.92 31.84 133.06 32.35 135.2 31.84 137.43 32.35 139.57 31.84 141.8 32.09"/><polyline class="cls-11" points="152.43 32.09 152.68 34.32 152.17 36.46 152.68 38.6 152.17 40.83 152.68 42.97 152.17 45.11 152.68 47.34 152.17 49.48 152.68 51.71 152.43 53.85 152.68 55.99 152.17 58.22 152.68 60.37 152.17 62.59 152.68 64.73 152.17 66.88 152.68 69.11 152.17 71.25 152.68 73.47 152.43 75.62 152.68 77.76 152.17 79.99 152.68 82.13 152.17 84.27 152.68 86.5 152.17 88.64 152.68 90.87 152.17 93.01 152.68 95.15 152.43 97.38 152.68 99.52 152.17 101.75 152.68 103.89 152.17 106.03 152.68 108.26 152.17 110.4 152.68 112.63 152.17 114.77 152.68 116.91 152.43 119.14 152.68 121.28 152.17 123.42 152.68 125.65 152.17 127.8 152.68 130.02 152.17 132.16 152.68 134.31 152.17 136.53 152.68 138.68 152.43 140.9 152.68 143.05 152.17 145.19 152.68 147.42 152.17 149.56 152.68 151.78 152.17 153.93 152.68 156.07 152.17 158.3 152.68 160.44 152.25 165.92"/><polyline class="cls-11" points="152 205.08 148.48 205.34 146.34 204.74 144.11 205.34 141.97 204.74 139.74 205.34 137.6 204.74 135.46 205.34 133.23 204.74 131.09 205.34 128.86 205.08 126.72 205.34 124.58 204.74 122.35 205.34 120.21 204.74 118.07 205.34 115.84 204.74 113.7 205.34 111.47 204.74 109.33 205.34 107.19 205.08"/><line class="cls-11" x1="518.2" y1="73.5" x2="518.23" y2="56.11"/><path d="M591.09,140.33v.36l.3-.3Zm0,.36.43.06-.13-.36Z" transform="translate(-72.83 -67.25)"/><path class="cls-8" d="M591.39,140.39l-.3.3.42.06Zm-.3-.06.3.06-.3.3Z" transform="translate(-72.83 -67.25)"/><path d="M591,140.75l-.3.3-.06-.3Zm.06.42-.06-.42-.3.3Zm0-.36v.36l-.06-.42Zm.3.3-.3-.3v.36Zm-.3-.42.3.42-.3-.3Zm.42.06-.42-.06.3.42Z" transform="translate(-72.83 -67.25)"/><path class="cls-8" d="M591,140.75l-.3.3-.06-.3Zm.06.42-.06-.42-.3.3Zm0-.36v.36l-.06-.42Zm.3.3-.3-.3v.36Zm-.3-.42.3.42-.3-.3Zm.42.06-.42-.06.3.42Z" transform="translate(-72.83 -67.25)"/><path d="M590.73,140.45l-.06.3H591Zm.3.3.06-.06v-.36Zm-.3-.3.3.3.06-.42Z" transform="translate(-72.83 -67.25)"/><path class="cls-8" d="M591,140.75l.06-.42v.36Zm-.3-.3.3.3.06-.42Zm-.06.3.06-.3.3.3Z" transform="translate(-72.83 -67.25)"/><line class="cls-11" x1="521.11" y1="73.49" x2="515.29" y2="73.51"/><path d="M591.48,123.3l-.42.06.3.3Zm-.42-.42v.48l.3-.3Zm0,.48.42-.06-.12-.24Z" transform="translate(-72.83 -67.25)"/><path class="cls-8" d="M591.06,123.36l.42-.06-.12.36Zm.3-.3-.3.3.42-.06Zm-.3-.18.3.18-.3.3Z" transform="translate(-72.83 -67.25)"/><path d="M590.76,123.66l.24.13.06-.43Zm-.19-.3.19.3.3-.3Zm.49,0-.06.43.36-.13Z" transform="translate(-72.83 -67.25)"/><path class="cls-8" d="M591.06,123.36l-.3.31-.19-.31Zm-.06.43.06-.43-.3.31Zm.36-.13-.36.13.06-.43Z" transform="translate(-72.83 -67.25)"/><path d="M590.7,123l-.13.36h.49Zm.3.3-.3-.3.36.36Zm0,0,.06.06v-.48Zm-.3-.3.3.3.06-.42Z" transform="translate(-72.83 -67.25)"/><path class="cls-8" d="M591,123.3l.06-.42v.48Zm-.3-.3.3.3.06-.42Zm.36.36-.36-.36.3.3Zm-.49,0h.49l-.36-.36Z" transform="translate(-72.83 -67.25)"/><line class="cls-11" x1="521.14" y1="56.11" x2="515.32" y2="56.12"/><line class="cls-11" x1="518.19" y1="38.66" x2="518.23" y2="56.11"/><path d="M591,106l.06.43.3-.18Zm.06-.06L591,106l.36.25Zm0,0,.3.31.12-.25Zm0,0,.42.06-.12-.36Z" transform="translate(-72.83 -67.25)"/><path class="cls-8" d="M591,105.91l.42.06-.12-.36Zm.3.31-.3-.31.42.06ZM591,106l.36.25-.3-.31Zm.06.43L591,106l.36.25Z" transform="translate(-72.83 -67.25)"/><path d="M590.72,105.61l.31.3-.06-.42Zm.25-.12.06.42.3-.3Z" transform="translate(-72.83 -67.25)"/><path class="cls-8" d="M591,105.49l.06.42-.31-.3Zm.36.12-.36-.12.06.42Z" transform="translate(-72.83 -67.25)"/><path d="M591,106l-.43-.06.13.37Zm-.3.31.36.12L591,106Zm.05-.67-.18.3H591Zm.31.3h-.49l.43.06Z" transform="translate(-72.83 -67.25)"/><path class="cls-8" d="M591,106l-.31.31.37.12Zm-.43-.06.43.06-.31.31Zm.49,0h-.49l.43.06Zm-.31-.3.31.3h-.49Z" transform="translate(-72.83 -67.25)"/><line class="cls-11" x1="521.1" y1="38.66" x2="515.29" y2="38.67"/><path d="M591.06,123.36l-.06.43.36-.13Zm0,0,.3.3.12-.36Zm0,0,.42-.06-.12-.24Z" transform="translate(-72.83 -67.25)"/><path class="cls-8" d="M591.06,123.36l.42-.06-.12-.24Zm.3.3-.3-.3.42-.06Zm-.36.13.36-.13-.3-.3Z" transform="translate(-72.83 -67.25)"/><path d="M591.06,123.36l-.3.31.24.12Zm-.49,0h.49l-.3.31Zm.43-.06-.43.06h.49Zm-.3-.3.3.3-.43.06Zm.36.36-.36-.36.3.3Zm0-.48v.48l-.36-.36Zm.3.18-.3-.18v.48Z" transform="translate(-72.83 -67.25)"/><path class="cls-8" d="M591.06,123.36l-.3.31.24.12Zm-.49,0h.49l-.3.31Zm.43-.06-.43.06h.49Zm-.3-.3.3.3-.43.06Zm.36.36-.36-.36.3.3Zm0-.48v.48l-.36-.36Zm.3.18-.3-.18v.48Z" transform="translate(-72.83 -67.25)"/><path d="M591.06,123.36l.3-.3.12.24Zm0-.48v.48l.3-.3Zm-.06.42.06-.42v.48Zm-.3-.3.3.3.06-.42Zm.36.36-.36-.36.3.3Zm-.49,0h.49l-.36-.36Z" transform="translate(-72.83 -67.25)"/><path class="cls-8" d="M591.06,123.36l.3-.3.12.24Zm0-.48v.48l.3-.3Zm-.06.42.06-.42v.48Zm-.3-.3.3.3.06-.42Zm.36.36-.36-.36.3.3Zm-.49,0h.49l-.36-.36Z" transform="translate(-72.83 -67.25)"/><path d="M591.06,123.36l-.06.43.36-.13Zm0,0-.3.3.24.13.06-.43.3.3.12-.36Z" transform="translate(-72.83 -67.25)"/><path class="cls-8" d="M591.06,123.36l-.06.43-.24-.12Zm.3.3-.3-.3-.06.43Zm.12-.36-.12.36-.3-.3Z" transform="translate(-72.83 -67.25)"/><polygon points="517.74 56.11 517.92 56.41 518.23 56.11 517.74 56.11"/><polygon class="cls-8" points="517.92 56.41 517.74 56.11 518.23 56.11 517.92 56.41"/><line class="cls-11" x1="518.22" y1="53.2" x2="518.23" y2="59.02"/><path d="M591.06,123.36l.42-.06-.12-.24Zm0-.48v.48l.3-.3Z" transform="translate(-72.83 -67.25)"/><path class="cls-8" d="M591.36,123.06l-.3.3v-.48Zm.12.24-.12-.24-.3.3Z" transform="translate(-72.83 -67.25)"/><path d="M591.06,123.36l-.3.31.24.12Zm-.49,0h.49l-.3.31Zm.43-.06-.43.06h.49Zm-.3-.3.3.3-.43.06Zm.36.36-.36-.36.3.3Zm0-.48v.48l-.36-.36Z" transform="translate(-72.83 -67.25)"/><path class="cls-8" d="M591.06,123.36l-.3.31.24.12Zm-.49,0h.49l-.3.31Zm.43-.06-.43.06h.49Zm-.3-.3.3.3-.43.06Zm.36.36-.36-.36.3.3Zm0-.48v.48l-.36-.36Z" transform="translate(-72.83 -67.25)"/><path d="M591.06,123.36l-.06.43.36-.13Zm0,0,.3.3.12-.36Z" transform="translate(-72.83 -67.25)"/><path class="cls-8" d="M591.36,123.66l-.3-.3.42-.06Zm-.36.13.36-.13-.3-.3Z" transform="translate(-72.83 -67.25)"/><line class="cls-11" x1="518.22" y1="53.2" x2="518.23" y2="59.02"/><rect class="cls-9" x="419.49" y="46.74" width="21.76" height="21.76"/><polyline class="cls-9" points="397.73 225.13 419.49 225.13 419.49 203.45 397.73 203.45"/><rect class="cls-9" x="397.73" y="159.92" width="21.76" height="21.76"/><rect class="cls-9" x="397.73" y="138.16" width="21.76" height="21.76"/><rect class="cls-9" x="397.73" y="116.4" width="21.76" height="21.76"/><rect class="cls-9" x="397.73" y="94.64" width="21.76" height="21.76"/><rect class="cls-9" x="586.99" y="46.74" width="21.76" height="21.76"/><polyline class="cls-9" points="652.2 329.57 652.2 307.81 630.43 307.81 630.43 329.57"/><polyline class="cls-9" points="630.43 286.05 630.43 307.81 652.2 307.81 652.2 286.05"/><polyline class="cls-9" points="652.2 286.05 652.2 264.28 630.43 264.28 630.43 286.05"/><rect class="cls-9" x="630.43" y="242.61" width="21.76" height="21.68"/><polyline class="cls-9" points="630.43 220.84 630.43 242.61 652.2 242.61 652.2 220.84"/><polyline class="cls-9" points="652.2 220.84 652.2 199.08 630.43 199.08 630.43 220.84"/><polyline class="cls-9" points="630.43 166.44 630.43 188.2 652.2 188.2 652.2 166.44"/><polyline class="cls-9" points="652.2 166.44 652.2 144.67 630.43 144.67 630.43 166.44"/><polyline class="cls-9" points="630.43 95.39 630.43 144.68 652.2 144.68 652.2 95.39"/><polyline class="cls-9" points="652.2 95.39 652.2 79.13 630.43 79.13 630.43 95.39"/><rect class="cls-9" x="608.76" y="46.74" width="21.68" height="21.76"/><polyline class="cls-9" points="630.43 329.57 630.43 351.33 652.2 351.33 652.2 329.57"/><rect class="cls-9" x="565.23" y="46.74" width="21.76" height="21.76"/><rect class="cls-9" x="484.78" y="46.74" width="21.68" height="21.76"/><rect class="cls-9" x="441.25" y="46.74" width="21.76" height="21.76"/><rect class="cls-9" x="332.44" y="203.45" width="21.76" height="21.68"/><polyline class="cls-9" points="375.96 203.45 354.2 203.45 354.2 225.13 375.96 225.13"/><line class="cls-9" x1="375.96" y1="225.13" x2="397.73" y2="225.13"/><line class="cls-9" x1="397.73" y1="203.45" x2="375.96" y2="203.45"/><rect class="cls-9" x="463.01" y="46.74" width="21.76" height="21.76"/><rect class="cls-3" x="499.94" y="333.94" width="65.29" height="21.76"/><rect class="cls-11" x="499.94" y="333.94" width="65.29" height="21.76"/><rect class="cls-5" x="12.85" y="355.7" width="21.76" height="21.76"/><rect class="cls-6" x="12.85" y="355.7" width="21.76" height="21.76"/><rect class="cls-5" x="12.85" y="333.94" width="21.76" height="21.76"/><rect class="cls-6" x="12.85" y="333.94" width="21.76" height="21.76"/><rect class="cls-5" x="12.85" y="312.18" width="21.76" height="21.76"/><rect class="cls-6" x="12.85" y="312.18" width="21.76" height="21.76"/><rect class="cls-5" x="12.85" y="290.42" width="21.76" height="21.76"/><rect class="cls-6" x="12.85" y="290.42" width="21.76" height="21.76"/><rect class="cls-5" x="12.85" y="257.77" width="21.76" height="10.88"/><rect class="cls-6" x="12.85" y="257.77" width="21.76" height="10.88"/><rect class="cls-5" x="12.85" y="236.01" width="21.76" height="21.76"/><rect class="cls-6" x="12.85" y="236.01" width="21.76" height="21.76"/><rect class="cls-5" x="12.85" y="225.13" width="21.76" height="10.88"/><rect class="cls-6" x="12.85" y="225.13" width="21.76" height="10.88"/><rect class="cls-11" x="12.85" y="33.72" width="43.52" height="32.64"/><rect class="cls-11" x="56.38" y="33.72" width="21.76" height="21.76"/><rect class="cls-11" x="78.14" y="33.72" width="21.76" height="21.76"/><rect class="cls-11" x="117.3" y="33.72" width="32.64" height="43.52"/><rect class="cls-11" x="128.18" y="88.13" width="21.76" height="21.76"/><rect class="cls-11" x="106.41" y="109.89" width="43.53" height="43.52"/><rect class="cls-11" x="99.9" y="153.41" width="50.04" height="50.04"/><rect class="cls-11" x="159.54" y="55.48" width="21.76" height="43.52"/><rect class="cls-11" x="203.06" y="33.72" width="21.76" height="21.76"/><rect class="cls-11" x="224.82" y="33.72" width="21.68" height="21.76"/><rect class="cls-11" x="246.5" y="33.72" width="21.76" height="21.76"/><rect class="cls-11" x="159.54" y="99.01" width="21.76" height="21.76"/><rect class="cls-11" x="159.54" y="120.77" width="21.76" height="21.76"/><rect class="cls-11" x="159.54" y="142.53" width="21.76" height="21.76"/><rect class="cls-5" x="121.41" y="225.13" width="21.76" height="21.76"/><rect class="cls-6" x="121.41" y="225.13" width="21.76" height="21.76"/><rect class="cls-5" x="121.41" y="246.89" width="21.76" height="21.76"/><rect class="cls-6" x="121.41" y="246.89" width="21.76" height="21.76"/><rect class="cls-5" x="121.41" y="290.42" width="21.76" height="21.76"/><rect class="cls-6" x="121.41" y="290.42" width="21.76" height="21.76"/><rect class="cls-5" x="121.41" y="333.94" width="21.76" height="21.76"/><rect class="cls-6" x="121.41" y="333.94" width="21.76" height="21.76"/><rect class="cls-5" x="99.65" y="225.13" width="21.76" height="21.76"/><rect class="cls-6" x="99.65" y="225.13" width="21.76" height="21.76"/><rect class="cls-5" x="99.65" y="246.89" width="21.76" height="21.76"/><rect class="cls-6" x="99.65" y="246.89" width="21.76" height="21.76"/><rect class="cls-5" x="99.65" y="290.42" width="21.76" height="21.76"/><rect class="cls-6" x="99.65" y="290.42" width="21.76" height="21.76"/><rect class="cls-5" x="99.65" y="312.18" width="21.76" height="21.76"/><rect class="cls-6" x="99.65" y="312.18" width="21.76" height="21.76"/><rect class="cls-5" x="99.65" y="333.94" width="21.76" height="21.76"/><rect class="cls-6" x="99.65" y="333.94" width="21.76" height="21.76"/><rect class="cls-11" x="12.85" y="120.77" width="21.76" height="21.76"/><rect class="cls-11" x="12.85" y="142.53" width="21.76" height="43.44"/><rect class="cls-11" x="203.06" y="333.94" width="21.76" height="21.76"/><rect class="cls-11" x="203.06" y="312.18" width="21.76" height="21.76"/><rect class="cls-11" x="203.06" y="246.89" width="21.76" height="21.76"/><rect class="cls-11" x="224.82" y="333.94" width="21.68" height="21.76"/><rect class="cls-11" x="224.82" y="312.18" width="21.68" height="21.76"/><rect class="cls-11" x="224.82" y="268.65" width="21.68" height="21.76"/><rect class="cls-11" x="224.82" y="246.89" width="21.68" height="21.76"/><rect class="cls-11" x="290.03" y="268.65" width="21.76" height="21.76"/><rect class="cls-11" x="290.03" y="246.89" width="21.76" height="21.76"/><rect class="cls-11" x="300.91" y="203.45" width="21.76" height="21.68"/><rect class="cls-11" x="311.79" y="268.65" width="21.76" height="21.76"/><rect class="cls-11" x="311.79" y="246.89" width="21.76" height="21.76"/><rect class="cls-11" x="300.91" y="181.69" width="21.76" height="21.76"/><rect class="cls-11" x="290.03" y="312.18" width="43.52" height="43.52"/><rect class="cls-11" x="367.31" y="159.92" width="21.76" height="21.76"/><rect class="cls-11" x="367.31" y="138.16" width="21.76" height="21.76"/><rect class="cls-11" x="367.31" y="116.4" width="21.76" height="21.76"/><rect class="cls-7" x="446.39" y="94.64" width="152.25" height="65.29"/><rect class="cls-6" x="446.39" y="94.64" width="152.25" height="65.29"/><rect class="cls-11" x="377.08" y="333.94" width="21.76" height="21.76"/><rect class="cls-11" x="377.08" y="312.18" width="21.76" height="21.76"/><rect class="cls-11" x="377.08" y="268.65" width="21.76" height="21.76"/><rect class="cls-11" x="377.08" y="246.89" width="21.76" height="21.76"/><rect class="cls-11" x="398.84" y="312.18" width="21.76" height="21.76"/><rect class="cls-11" x="398.84" y="268.65" width="21.76" height="21.76"/><rect class="cls-11" x="398.84" y="246.89" width="21.76" height="21.76"/><rect class="cls-7" x="464.73" y="225.13" width="21.76" height="21.76"/><rect class="cls-6" x="464.73" y="225.13" width="21.76" height="21.76"/><rect class="cls-7" x="516.91" y="225.13" width="21.76" height="21.76"/><rect class="cls-6" x="516.91" y="225.13" width="21.76" height="21.76"/><rect class="cls-7" x="569.09" y="225.13" width="21.76" height="21.76"/><rect class="cls-6" x="569.09" y="225.13" width="21.76" height="21.76"/><path class="cls-11" d="M653.87,252.28a7.59,7.59,0,1,0,7.58,7.58,7.58,7.58,0,0,0-7.58-7.58" transform="translate(-72.83 -67.25)"/><polyline class="cls-11" points="130.92 31.83 133.06 31.58 135.2 32.09 137.43 31.58 139.57 32.09 141.8 31.58 143.94 32.09 146.09 31.58 148.31 32.09 150.45 31.58 152.68 31.83"/><polyline class="cls-11" points="152.25 165.92 152.51 168.06 152 170.21 152.51 172.44 152 174.58 152.51 176.8 152 178.95 152.51 181.09 152 183.32 152.51 185.46 152.25 187.6 152.51 189.83 152 191.97 152.51 194.2 152 196.34 152.51 198.48 152 200.71 152.51 202.85 152 205.08"/><polyline class="cls-11" points="120.21 204.74 118.07 205.08 115.84 204.48 113.7 205.08 111.47 204.48 109.33 205.08 107.19 204.48 104.96 205.08 102.82 204.48 100.59 205.08 98.45 204.74"/><rect class="cls-5" x="12.85" y="268.65" width="21.76" height="21.76"/><rect class="cls-6" x="12.85" y="268.65" width="21.76" height="21.76"/><rect class="cls-5" x="121.41" y="312.18" width="21.76" height="21.76"/><rect class="cls-6" x="121.41" y="312.18" width="21.76" height="21.76"/><rect class="cls-11" x="12.85" y="99.01" width="21.76" height="21.76"/><rect class="cls-11" x="12.85" y="77.24" width="21.76" height="21.76"/><rect class="cls-11" x="181.3" y="33.72" width="21.76" height="21.76"/><rect class="cls-11" x="268.26" y="33.72" width="34.87" height="34.79"/><rect class="cls-11" x="367.31" y="94.64" width="21.76" height="21.76"/><rect class="cls-11" x="203.06" y="268.65" width="21.76" height="21.76"/><rect class="cls-11" x="398.84" y="333.94" width="43.44" height="21.76"/><rect class="cls-11" x="420.6" y="312.18" width="21.68" height="21.76"/><rect class="cls-11" x="461.39" y="380.64" width="21.68" height="21.76"/><rect class="cls-11" x="483.06" y="380.64" width="21.76" height="21.76"/><rect class="cls-11" x="504.83" y="380.64" width="21.76" height="21.76"/><rect class="cls-7" x="464.73" y="268.65" width="21.76" height="21.76"/><rect class="cls-6" x="464.73" y="268.65" width="21.76" height="21.76"/><rect class="cls-7" x="516.91" y="268.65" width="21.76" height="21.76"/><rect class="cls-6" x="516.91" y="268.65" width="21.76" height="21.76"/><rect class="cls-7" x="569.09" y="268.65" width="21.76" height="21.76"/><rect class="cls-6" x="569.09" y="268.65" width="21.76" height="21.76"/><polyline class="cls-11" points="11.22 144.16 10.97 141.93 11.57 139.79 10.97 137.65 11.57 135.42 10.97 133.28 11.57 131.05 10.97 128.91 11.57 126.77 10.97 124.54 11.22 122.4"/><rect class="cls-11" x="203.06" y="181.69" width="43.44" height="43.44"/></g><text class="cls-12" transform="translate(25.62 421.53)">Entrance</text><text class="cls-12" transform="translate(9.86 432.41)">Monday Evening</text><text class="cls-13" transform="translate(571.05 282.28)">D504</text><text class="cls-13" transform="translate(518.87 282.28)">D505</text><text class="cls-13" transform="translate(466.69 282.28)">D500</text><text class="cls-13" transform="translate(506.79 394.26)">D324</text><text class="cls-13" transform="translate(485.02 394.26)">D323</text><text class="cls-13" transform="translate(463.35 394.26)">D322</text><text class="cls-13" transform="translate(422.56 325.8)">D317</text><text class="cls-13" transform="translate(411.68 347.56)">D321</text><text class="cls-13" transform="translate(205.02 282.28)">D302</text><text class="cls-13" transform="translate(369.27 108.26)">D410</text><text class="cls-13" transform="translate(276.82 53.86)">D409</text><text class="cls-13" transform="translate(183.26 47.35)">D405</text><text class="cls-13" transform="translate(14.89 90.87)">D203</text><text class="cls-13" transform="translate(14.89 112.63)">D202</text><text class="cls-13" transform="translate(123.36 325.8)">D114</text><text class="cls-13" transform="translate(14.89 282.28)">D104</text><text class="cls-13" transform="translate(571.04 238.75)">D503</text><text class="cls-13" transform="translate(518.86 238.75)">D502</text><text class="cls-13" transform="translate(466.68 238.75)">D501</text><text class="cls-12" transform="translate(507.12 347.57)">CHI Letters</text><text class="cls-13" transform="translate(424.1 60.37)">312</text><text class="cls-13" transform="translate(402.34 173.47)">406</text><text class="cls-13" transform="translate(402.34 151.79)">404</text><text class="cls-13" transform="translate(402.34 130.03)">402</text><text class="cls-13" transform="translate(402.34 108.27)">400</text><text class="cls-13" transform="translate(467.63 60.37)">308</text><text class="cls-13" transform="translate(489.39 60.37)">306</text><text class="cls-13" transform="translate(445.86 60.37)">310</text><text class="cls-13" transform="translate(569.67 60.37)">303</text><text class="cls-13" transform="translate(591.61 60.37)">302</text><text class="cls-13" transform="translate(613.37 60.37)">300</text><text class="cls-13" transform="translate(635.13 92.76)">206</text><text class="cls-13" transform="translate(635.13 114.52)">204</text><text class="cls-13" transform="translate(635.13 158.3)">202</text><text class="cls-13" transform="translate(635.13 180.06)">200</text><text class="cls-13" transform="translate(635.05 212.62)">112</text><text class="cls-13" transform="translate(635.13 234.38)">110</text><text class="cls-13" transform="translate(635.13 256.15)">108</text><text class="cls-13" transform="translate(635.13 277.91)">106</text><text class="cls-13" transform="translate(635.13 299.67)">104</text><text class="cls-13" transform="translate(635.13 321.43)">102</text><text class="cls-13" transform="translate(635.13 343.19)">100</text><text class="cls-13" transform="translate(14.9 369.32)">D100</text><text class="cls-13" transform="translate(14.9 347.56)">D101</text><text class="cls-13" transform="translate(14.9 325.8)">D102</text><text class="cls-13" transform="translate(14.9 304.04)">D103</text><text class="cls-13" transform="translate(14.9 266)">D105</text><text class="cls-13" transform="translate(14.9 249.63)">D106</text><text class="cls-13" transform="translate(14.9 233.36)">D107</text><text class="cls-13" transform="translate(25.7 52.74)">D208</text><text class="cls-13" transform="translate(58.34 47.34)">D205</text><text class="cls-13" transform="translate(80.1 47.34)">D206</text><text class="cls-13" transform="translate(124.75 58.23)">D207</text><text class="cls-13" transform="translate(130.15 101.75)">D209</text><text class="cls-13" transform="translate(119.26 134.31)">D210</text><text class="cls-13" transform="translate(116.01 181.09)">D211</text><text class="cls-13" transform="translate(161.5 79.99)">D404</text><text class="cls-13" transform="translate(205.03 47.34)">D406</text><text class="cls-13" transform="translate(226.79 47.34)">D407</text><text class="cls-13" transform="translate(248.55 47.34)">D408</text><text class="cls-13" transform="translate(161.5 112.63)">D403</text><text class="cls-13" transform="translate(161.5 134.31)">D402</text><text class="cls-13" transform="translate(161.5 156.07)">D401</text><text class="cls-13" transform="translate(123.38 238.75)">D117</text><text class="cls-13" transform="translate(123.38 260.52)">D116</text><text class="cls-13" transform="translate(123.38 304.04)">D115</text><text class="cls-13" transform="translate(123.38 347.56)">D113</text><text class="cls-13" transform="translate(101.62 238.75)">D108</text><text class="cls-13" transform="translate(101.62 260.51)">D109</text><text class="cls-13" transform="translate(101.62 304.03)">D110</text><text class="cls-13" transform="translate(101.62 325.79)">D111</text><text class="cls-13" transform="translate(101.62 347.55)">D112</text><text class="cls-13" transform="translate(14.91 134.3)">D201</text><text class="cls-13" transform="translate(14.91 166.94)">D200</text><text class="cls-13" transform="translate(205.03 347.55)">D300</text><text class="cls-13" transform="translate(205.03 260.51)">D303</text><text class="cls-13" transform="translate(226.8 347.55)">D307</text><text class="cls-13" transform="translate(226.8 325.79)">D306</text><text class="cls-13" transform="translate(226.8 282.27)">D305</text><text class="cls-13" transform="translate(226.8 260.51)">D304</text><text class="cls-13" transform="translate(215.91 206.1)">D400</text><text class="cls-13" transform="translate(292 282.27)">D309</text><text class="cls-13" transform="translate(292 260.51)">D310</text><text class="cls-13" transform="translate(302.88 216.98)">D415</text><text class="cls-13" transform="translate(313.76 282.27)">D312</text><text class="cls-13" transform="translate(313.76 260.51)">D311</text><text class="cls-13" transform="translate(302.88 195.22)">D414</text><text class="cls-13" transform="translate(302.88 336.68)">D308</text><text class="cls-13" transform="translate(369.28 173.46)">D413</text><text class="cls-13" transform="translate(369.28 151.78)">D412</text><text class="cls-13" transform="translate(369.28 130.02)">D411</text><text class="cls-12" transform="translate(492.53 130.02)">Meeting Zone</text><text class="cls-13" transform="translate(379.04 347.56)">D320</text><text class="cls-13" transform="translate(379.04 325.8)">D319</text><text class="cls-13" transform="translate(379.04 282.28)">D313</text><text class="cls-13" transform="translate(400.81 325.8)">D318</text><text class="cls-13" transform="translate(400.81 282.28)">D316</text><text class="cls-13" transform="translate(400.81 260.52)">D315</text><text class="cls-13" transform="translate(379.04 260.52)">D314</text><text class="cls-13" transform="translate(205.03 325.8)">D301</text><text class="cls-13" transform="translate(336.8 217.01)">506</text><text class="cls-13" transform="translate(569.23 208.74)">Graﬃti</text><text class="cls-13" transform="translate(567.66 217.82)">Column</text><g class="cls-10"><line class="cls-9" x1="564.99" y1="46.8" x2="564.99" y2="67.98"/><rect class="cls-9" x="543.37" y="46.74" width="21.76" height="21.76"/></g><text class="cls-13" transform="translate(547.81 60.37)">304</text><g class="cls-10"><rect class="cls-9" x="630.5" y="123.01" width="21.76" height="21.76"/></g><text class="cls-13" transform="translate(634.94 136.64)">203</text><g class="cls-10"><line class="cls-9" x1="1.11" y1="11.67" x2="654.98" y2="11.67"/><line class="cls-11" x1="531.95" y1="73.5" x2="531.98" y2="56.11"/><path d="M604.85,140.33v.36l.3-.3Zm0,.36.42.06-.12-.36Z" transform="translate(-72.83 -67.25)"/><path class="cls-8" d="M605.15,140.39l-.3.3.42.06Zm-.3-.06.3.06-.3.3Z" transform="translate(-72.83 -67.25)"/><path d="M604.79,140.75l-.3.3-.07-.3Zm.06.42-.06-.42-.3.3Zm0-.36v.36l-.06-.42Zm.3.3-.3-.3v.36Zm-.3-.42.3.42-.3-.3Zm.42.06-.42-.06.3.42Z" transform="translate(-72.83 -67.25)"/><path class="cls-8" d="M604.79,140.75l-.3.3-.07-.3Zm.06.42-.06-.42-.3.3Zm0-.36v.36l-.06-.42Zm.3.3-.3-.3v.36Zm-.3-.42.3.42-.3-.3Zm.42.06-.42-.06.3.42Z" transform="translate(-72.83 -67.25)"/><path d="M604.48,140.45l-.06.3h.37Zm.31.3.06-.06v-.36Zm-.31-.3.31.3.06-.42Z" transform="translate(-72.83 -67.25)"/><path class="cls-8" d="M604.79,140.75l.06-.42v.36Zm-.31-.3.31.3.06-.42Zm-.06.3.06-.3.31.3Z" transform="translate(-72.83 -67.25)"/><line class="cls-11" x1="534.86" y1="73.49" x2="529.05" y2="73.51"/><path d="M605.24,123.3l-.42.06.3.3Zm-.42-.42v.48l.3-.3Zm0,.48.42-.06-.12-.24Z" transform="translate(-72.83 -67.25)"/><path class="cls-8" d="M604.82,123.36l.42-.06-.12.36Zm.3-.3-.3.3.42-.06Zm-.3-.18.3.18-.3.3Z" transform="translate(-72.83 -67.25)"/><path d="M604.51,123.66l.25.13.06-.43Zm-.18-.3.18.3.31-.3Zm.49,0-.06.43.36-.13Z" transform="translate(-72.83 -67.25)"/><path class="cls-8" d="M604.82,123.36l-.31.31-.18-.31Zm-.06.43.06-.43-.31.31Zm.36-.13-.36.13.06-.43Z" transform="translate(-72.83 -67.25)"/><path d="M604.45,123l-.12.36h.49Zm.31.3-.31-.3.37.36Zm0,0,.06.06v-.48Zm-.31-.3.31.3.06-.42Z" transform="translate(-72.83 -67.25)"/><path class="cls-8" d="M604.76,123.3l0-.42v.48Zm-.31-.3.31.3,0-.42Zm.37.36-.37-.36.31.3Zm-.49,0h.49l-.37-.36Z" transform="translate(-72.83 -67.25)"/><line class="cls-11" x1="534.89" y1="56.11" x2="529.08" y2="56.12"/><line class="cls-11" x1="531.95" y1="38.66" x2="531.98" y2="56.11"/><path d="M604.72,106l.07.43.3-.18Zm.06-.06-.06.06.37.25Zm0,0,.31.31.12-.25Zm0,0,.43.06-.12-.36Z" transform="translate(-72.83 -67.25)"/><path class="cls-8" d="M604.78,105.91l.43.06-.12-.36Zm.31.31-.31-.31.43.06Zm-.37-.25.37.25-.31-.31Zm.07.43-.07-.43.37.25Z" transform="translate(-72.83 -67.25)"/><path d="M604.48,105.61l.3.3-.06-.42Zm.24-.12.06.42.31-.3Z" transform="translate(-72.83 -67.25)"/><path class="cls-8" d="M604.72,105.49l.06.42-.3-.3Zm.37.12-.37-.12.06.42Z" transform="translate(-72.83 -67.25)"/><path d="M604.72,106l-.42-.06.12.37Zm-.3.31.37.12-.07-.43Zm.06-.67-.18.3h.48Zm.3.3h-.48l.42.06Z" transform="translate(-72.83 -67.25)"/><path class="cls-8" d="M604.72,106l-.3.31.37.12Zm-.42-.06.42.06-.3.31Zm.48,0h-.48l.42.06Zm-.3-.3.3.3h-.48Z" transform="translate(-72.83 -67.25)"/><line class="cls-11" x1="534.86" y1="38.66" x2="529.04" y2="38.67"/><path d="M604.82,123.36l-.06.43.36-.13Zm0,0,.3.3.12-.36Zm0,0,.42-.06-.12-.24Z" transform="translate(-72.83 -67.25)"/><path class="cls-8" d="M604.82,123.36l.42-.06-.12-.24Zm.3.3-.3-.3.42-.06Zm-.36.13.36-.13-.3-.3Z" transform="translate(-72.83 -67.25)"/><path d="M604.82,123.36l-.31.31.25.12Zm-.49,0h.49l-.31.31Zm.43-.06-.43.06h.49Zm-.31-.3.31.3-.43.06Zm.37.36-.37-.36.31.3Zm0-.48v.48l-.37-.36Zm.3.18-.3-.18v.48Z" transform="translate(-72.83 -67.25)"/><path class="cls-8" d="M604.82,123.36l-.31.31.25.12Zm-.49,0h.49l-.31.31Zm.43-.06-.43.06h.49Zm-.31-.3.31.3-.43.06Zm.37.36-.37-.36.31.3Zm0-.48v.48l-.37-.36Zm.3.18-.3-.18v.48Z" transform="translate(-72.83 -67.25)"/><path d="M604.82,123.36l.3-.3.12.24Zm0-.48v.48l.3-.3Zm0,.42,0-.42v.48Zm-.31-.3.31.3,0-.42Zm.37.36-.37-.36.31.3Zm-.49,0h.49l-.37-.36Z" transform="translate(-72.83 -67.25)"/><path class="cls-8" d="M604.82,123.36l.3-.3.12.24Zm0-.48v.48l.3-.3Zm0,.42,0-.42v.48Zm-.31-.3.31.3,0-.42Zm.37.36-.37-.36.31.3Zm-.49,0h.49l-.37-.36Z" transform="translate(-72.83 -67.25)"/><path d="M604.82,123.36l-.06.43.36-.13Zm0,0-.31.3.25.13.06-.43.3.3.12-.36Z" transform="translate(-72.83 -67.25)"/><path class="cls-8" d="M604.82,123.36l-.06.43-.25-.12Zm.3.3-.3-.3-.06.43Zm.12-.36-.12.36-.3-.3Z" transform="translate(-72.83 -67.25)"/><polygon points="531.5 56.11 531.68 56.41 531.98 56.11 531.5 56.11"/><polygon class="cls-8" points="531.68 56.41 531.5 56.11 531.98 56.11 531.68 56.41"/><line class="cls-11" x1="531.98" y1="53.2" x2="531.99" y2="59.02"/><path d="M604.82,123.36l.42-.06-.12-.24Zm0-.48v.48l.3-.3Z" transform="translate(-72.83 -67.25)"/><path class="cls-8" d="M605.12,123.06l-.3.3v-.48Zm.12.24-.12-.24-.3.3Z" transform="translate(-72.83 -67.25)"/><path d="M604.82,123.36l-.31.31.25.12Zm-.49,0h.49l-.31.31Zm.43-.06-.43.06h.49Zm-.31-.3.31.3-.43.06Zm.37.36-.37-.36.31.3Zm0-.48v.48l-.37-.36Z" transform="translate(-72.83 -67.25)"/><path class="cls-8" d="M604.82,123.36l-.31.31.25.12Zm-.49,0h.49l-.31.31Zm.43-.06-.43.06h.49Zm-.31-.3.31.3-.43.06Zm.37.36-.37-.36.31.3Zm0-.48v.48l-.37-.36Z" transform="translate(-72.83 -67.25)"/><path d="M604.82,123.36l-.06.43.36-.13Zm0,0,.3.3.12-.36Z" transform="translate(-72.83 -67.25)"/><path class="cls-8" d="M605.12,123.66l-.3-.3.42-.06Zm-.36.13.36-.13-.3-.3Z" transform="translate(-72.83 -67.25)"/><line class="cls-11" x1="531.98" y1="53.2" x2="531.99" y2="59.02"/><line class="cls-9" x1="540.19" y1="387.55" x2="654.67" y2="387.55"/><line class="cls-9" x1="70.5" y1="404.39" x2="540" y2="404.38"/><line class="cls-9" x1="1.66" y1="404.4" x2="27.17" y2="404.4"/><rect class="cls-7" x="513.49" y="3.13" width="22.42" height="21.95"/><rect class="cls-14" x="523.86" y="1.25" width="1.57" height="25.67"/><path class="cls-14" d="M591.9,75.37a1.21,1.21,0,1,1,1.35-1.21,1.29,1.29,0,0,1-1.35,1.21" transform="translate(-72.83 -67.25)"/><path class="cls-14" d="M589.73,79.65v2.62c0,.52-.2.62-.5.62s-.52-.13-.52-.62V78.89c0-1.48.62-1.87,2-1.87h2.21c1.34,0,2,.39,2,1.87v3.38c0,.5-.19.62-.54.62s-.48-.12-.48-.62V79.65c0-.28-.09-.33-.18-.33s-.2.05-.2.33v8.88a.74.74,0,0,1-1.48,0V83.34c0-.12,0-.25-.19-.25s-.2.08-.2.25v5.21a.67.67,0,0,1-.76.66.65.65,0,0,1-.71-.68V79.65c0-.33-.12-.33-.2-.33s-.18,0-.18.33" transform="translate(-72.83 -67.25)"/><path class="cls-14" d="M603.58,75.87a1.21,1.21,0,1,1,1.35-1.21,1.29,1.29,0,0,1-1.35,1.21" transform="translate(-72.83 -67.25)"/><path class="cls-14" d="M604.25,77.56a1.67,1.67,0,0,1,1.84,1.3l1.11,3.34c.13.32,0,.56-.26.63a.52.52,0,0,1-.63-.36l-1-3c-.05-.19-.12-.27-.29-.22s-.15.21-.08.39L606.77,85h-2v4c0,.62-.38.68-.53.68a.57.57,0,0,1-.6-.65V85.22c0-.18-.08-.26-.19-.26s-.21.07-.21.25v3.84c0,.6-.41.66-.56.66s-.54-.06-.54-.68V85h-2l1.79-5.33c.06-.18.13-.33-.05-.39s-.27,0-.33.22l-.95,3a.52.52,0,0,1-.63.36c-.28-.07-.4-.31-.27-.63l1.12-3.34a1.67,1.67,0,0,1,1.84-1.3Z" transform="translate(-72.83 -67.25)"/><rect class="cls-7" x="286.17" y="2.75" width="25.13" height="22.33"/><path class="cls-14" d="M377.86,74c1.53,0,3.06,0,4.6,0,.32,0,.43.1.43.44v5.46c0,.31-.11.42-.41.42h-9.24c-.28,0-.4-.12-.4-.41,0-1.83,0-3.67,0-5.5,0-.29.12-.41.41-.41,1.54,0,3.08,0,4.62,0m-3.47,1a.51.51,0,0,1,0,.1.54.54,0,1,0,1.07.06.53.53,0,0,0-.55-.56l-1.27,0c-.14,0-.26,0-.26.21s.11.22.26.22h.74" transform="translate(-72.83 -67.25)"/><path class="cls-14" d="M373.21,82.47c.08,0,.13,0,.15.06a3.15,3.15,0,0,0,1.59.74,13,13,0,0,0,6.34-.09,2.72,2.72,0,0,0,1.24-.63l.18-.09a5,5,0,0,1-2.37,3.94,4.58,4.58,0,0,1-5.24-.32,4.92,4.92,0,0,1-1.89-3.61" transform="translate(-72.83 -67.25)"/><path class="cls-14" d="M380.43,86.9c.06.55.11,1.06.17,1.57s.1,1.12.16,1.67c0,.29,0,.34-.28.34H375.4c-.26,0-.32,0-.29-.31.1-1.07.21-2.13.31-3.19,0,0,0,0,0-.1a5,5,0,0,0,5,0" transform="translate(-72.83 -67.25)"/><path class="cls-14" d="M378,82.7a10.35,10.35,0,0,1-2.77-.33,2.06,2.06,0,0,1-.57-.25c-.21-.14-.22-.34,0-.47a3,3,0,0,1,.73-.3,10.75,10.75,0,0,1,2.94-.27,9.2,9.2,0,0,1,2.45.31,2.34,2.34,0,0,1,.46.19c.13.06.29.14.25.31a.51.51,0,0,1-.26.3,4.11,4.11,0,0,1-.94.3c-.76.11-1.52.18-2.29.26Z" transform="translate(-72.83 -67.25)"/><path class="cls-14" d="M377.86,73.46h-4.62a.48.48,0,0,1-.39-.17c-.07-.08-.07-.15,0-.2l1.16-.52a.63.63,0,0,1,.24,0c2.4,0,4.79,0,7.19,0a1,1,0,0,1,.34.06c.35.15.69.32,1,.48.15.07.14.17,0,.24a.82.82,0,0,1-.39.13h-4.63" transform="translate(-72.83 -67.25)"/><rect class="cls-14" x="296.65" width="1.57" height="25.67"/><path class="cls-14" d="M364.28,75.55a1.22,1.22,0,1,1,0-2.42,1.22,1.22,0,1,1,0,2.42" transform="translate(-72.83 -67.25)"/><path class="cls-14" d="M362.1,79.82v2.62c0,.52-.2.63-.5.63s-.52-.13-.52-.63V79.06c0-1.48.62-1.86,2-1.86h2.2c1.35,0,2,.38,2,1.86v3.38c0,.5-.19.63-.54.63s-.48-.13-.48-.63V79.82c0-.28-.09-.33-.18-.33s-.2.05-.2.33v8.89a.74.74,0,0,1-1.47,0V83.51c0-.12,0-.25-.2-.25s-.2.08-.2.25v5.21a.67.67,0,0,1-.76.66.64.64,0,0,1-.7-.67V79.82c0-.33-.13-.33-.21-.33s-.18,0-.18.33" transform="translate(-72.83 -67.25)"/></g><text class="cls-15" transform="translate(301.38 11.99)">ALL</text><g class="cls-10"><polygon points="47.68 393.73 32.43 407.92 62.93 407.92 47.68 393.73"/></g><text class="cls-13" transform="translate(358.83 216.97)"><tspan xml:space="preserve">504   </tspan></text><text class="cls-13" transform="translate(377.69 216.97) scale(1.5 1)"> </text><text class="cls-13" transform="translate(380.75 216.97)">502</text><text class="cls-13" transform="translate(393.73 216.97)"><tspan class="cls-16" xml:space="preserve">  </tspan><tspan x="3.87" y="0"> </tspan></text><text class="cls-13" transform="translate(399.51 216.97)"> </text><text class="cls-13" transform="translate(401.84 216.97)">500</text><text class="cls-17" transform="translate(438.48 36.11)">Recruiting Boards</text><g class="cls-10"><line class="cls-11" x1="502.75" y1="36.08" x2="508.61" y2="39.89"/><polygon points="510.33 36.79 511.36 41.68 506.47 42.72 510.33 36.79"/></g><text class="cls-17" transform="translate(249.07 124.29)">Demonstration</text><text class="cls-17" transform="translate(265.84 133.39)">Areas</text><text class="cls-17" transform="translate(253.83 142.49)">(D100-D505)</text><text class="cls-17" transform="translate(499.67 178.79)"><tspan xml:space="preserve"> Exhibit Area</tspan></text><text class="cls-17" transform="translate(505.36 187.89)">(100-506)</text><text class="cls-12" transform="translate(165.23 420.74)">Demonstrations listed on pages 86-88 / Exhibitors listed on pages 90-91</text></svg>