<?xml version="1.0" standalone="no"?>
<!DOCTYPE svg PUBLIC "-//W3C//DTD SVG 20010904//EN"
 "http://www.w3.org/TR/2001/REC-SVG-20010904/DTD/svg10.dtd">
<svg version="1.0" xmlns="http://www.w3.org/2000/svg"
 width="249.000000pt" height="299.000000pt" viewBox="0 0 249.000000 299.000000"
 preserveAspectRatio="xMidYMid meet">
<metadata>
Created by potrace 1.15, written by Peter Selinger 2001-2017
</metadata>
<g transform="translate(0.000000,299.000000) scale(0.100000,-0.100000)"
fill="#000000" stroke="none">
<path d="M570 2875 l0 -115 -125 0 -125 0 0 -100 0 -100 -160 0 -160 0 0
-1280 0 -1280 960 0 960 0 0 100 0 100 160 0 160 0 0 115 0 115 125 0 125 0 0
1063 0 1062 -218 218 -217 217 -743 0 -742 0 0 -115z m1280 -285 l0 -240 240
0 240 0 0 -880 0 -880 -800 0 -800 0 0 1120 0 1120 560 0 560 0 0 -240z m319
-78 c-104 -2 -114 -1 -135 19 -23 21 -24 30 -24 138 l0 116 135 -135 135 -135
-111 -3z m-1599 -997 l0 -1085 755 0 755 0 0 -35 0 -35 -800 0 -800 0 0 1120
0 1120 45 0 45 0 0 -1085z m-250 -215 l0 -1100 720 0 c713 0 720 0 720 -20 0
-20 -7 -20 -800 -20 l-800 0 0 1120 0 1120 80 0 80 0 0 -1100z"/>
<path d="M890 1950 l0 -80 640 0 640 0 0 80 0 80 -640 0 -640 0 0 -80z"/>
<path d="M890 1630 l0 -80 640 0 640 0 0 80 0 80 -640 0 -640 0 0 -80z"/>
<path d="M890 1310 l0 -80 480 0 480 0 0 80 0 80 -480 0 -480 0 0 -80z"/>
</g>
</svg>
