<svg id="Layer_1" data-name="Layer 1" xmlns="http://www.w3.org/2000/svg" xmlns:xlink="http://www.w3.org/1999/xlink" viewBox="0 0 535.84 567.33"><defs><style>.cls-1,.cls-13,.cls-14,.cls-16,.cls-18,.cls-19,.cls-20,.cls-5,.cls-6,.cls-8{fill:none;}.cls-2{font-size:8px;}.cls-2,.cls-21,.cls-27,.cls-28,.cls-9{fill:#231f20;}.cls-2,.cls-27,.cls-28{font-family:OpenSans, Open Sans;}.cls-3{clip-path:url(#clip-path);}.cls-4{fill:#fd0;}.cls-13,.cls-14,.cls-19,.cls-20,.cls-5,.cls-6,.cls-8{stroke:#231f20;}.cls-18,.cls-19,.cls-5,.cls-8{stroke-miterlimit:10;}.cls-13,.cls-14,.cls-6{stroke-miterlimit:1;}.cls-13,.cls-6{stroke-width:0.77px;}.cls-7{fill:#fff;}.cls-14,.cls-8{stroke-width:0.5px;}.cls-10{fill:#0569a4;}.cls-11{fill:#0c6db6;}.cls-12{fill:#f29d34;}.cls-13{stroke-dasharray:1 1;}.cls-15{fill:#94c93d;}.cls-16{stroke:#fff;stroke-width:0.35px;}.cls-17{fill:#d1477b;}.cls-18{stroke:#b80e57;stroke-width:2.5px;}.cls-18,.cls-19{stroke-dasharray:5 3.02;}.cls-20{stroke-width:2px;stroke-dasharray:3.02 3.02;}.cls-21{font-size:10px;font-family:OpenSans-Semibold, Open Sans;font-weight:700;}.cls-22{letter-spacing:-0.02em;}.cls-23{letter-spacing:-0.03em;}.cls-24{letter-spacing:-0.01em;}.cls-25{letter-spacing:-0.01em;}.cls-26{letter-spacing:-0.01em;}.cls-27{font-size:21.11px;}.cls-28{font-size:16.58px;}</style><clipPath id="clip-path" transform="translate(-35.04 -64.46)"><rect class="cls-1" width="612" height="792"/></clipPath></defs><title>Level 5 Final</title><text class="cls-2" transform="matrix(1, 0, 0, 1.07, 249.84, 458.21)">Saturday-Sunday</text><text class="cls-2" transform="matrix(1, 0, 0, 1.07, 249.86, 469.21)">Men’s &amp; All Gender Restrooms</text><text class="cls-2" transform="matrix(1, 0, 0, 1.07, 248.81, 172.22)">Monday-Thursday</text><text class="cls-2" transform="matrix(1, 0, 0, 1.07, 248.83, 183.22)">Men’s &amp; All Gender Restrooms</text><g class="cls-3"><path class="cls-4" d="M497.85,306.24v20H392.15l0-7.68H381.37v7.68h-2.88v3.68h-2.87l-.06-8.63H362.69l.05,8.63H359V290.19H268.94V310.8H258.07a8.41,8.41,0,0,0-3.33,2.62H239.32s-.88-1.57-4-2.1H214.08a28.67,28.67,0,0,0-3.33,1.93H194.8s-.7-1.58-4.21-1.75H169.91a9.37,9.37,0,0,0-3.15,2.45H142.92v3.33l-43.65.19,0,9.57-57.89-.18,15.37,20.31-21,23.26,21.44,19.34.12.18-21,23.27,21.44,19.34.21,0L37,454.45l21.44,19.33.18,1.54L36.16,495.41,53.78,510l7.55,6.92,154.25.75.65-31.8,201.32,0-.5,120.74,114.8-.53-.17-114.8,10.34.17v6.14a4.66,4.66,0,0,0,3.85,3.85h14.2s3.68-1.05,4-4.2v-4.21s-.7-3.15-3-4h8.77V353.91h-8.77l.15-.57s-32.92-.83-32.49-.64l-.2-46.47Z" transform="translate(-35.04 -64.46)"/><path class="cls-5" d="M497.85,306.24v20H392.15l0-7.68H381.37v7.68h-2.88v3.68h-2.87l-.06-8.63H362.69l.05,8.63H359V290.19H268.94V310.8H258.07a8.41,8.41,0,0,0-3.33,2.62H239.32s-.88-1.57-4-2.1H214.08a28.67,28.67,0,0,0-3.33,1.93H194.8s-.7-1.58-4.21-1.75H169.91a9.37,9.37,0,0,0-3.15,2.45H142.92v3.33l-43.65.19,0,9.57-57.89-.18,15.37,20.31-21,23.26,21.44,19.34.12.18-21,23.27,21.44,19.34.21,0L37,454.45l21.44,19.33.18,1.54L36.16,495.41,53.78,510l7.55,6.92,154.25.75.65-31.8,201.32,0-.5,120.74,114.8-.53-.17-114.8,10.34.17v6.14a4.66,4.66,0,0,0,3.85,3.85h14.2s3.68-1.05,4-4.2v-4.21s-.7-3.15-3-4h8.77V353.91h-8.77l.15-.57s-32.92-.83-32.49-.64l-.2-46.47Z" transform="translate(-35.04 -64.46)"/><path class="cls-6" d="M498.45,306.84v20H392.76l0-7.68H382v7.68h-2.88v3.68h-2.87l-.05-8.62H363.3l0,8.62h-3.7V290.8h-90.1v20.6H258.68a8.44,8.44,0,0,0-3.33,2.63H239.92s-.87-1.58-4-2.1H214.68a28.16,28.16,0,0,0-3.33,1.92H195.41s-.71-1.57-4.21-1.75H170.52a9.62,9.62,0,0,0-3.16,2.45H143.52v3.33H99.35" transform="translate(-35.04 -64.46)"/><path class="cls-6" d="M541.75,345.75v4.39a4.08,4.08,0,0,0,3.15,3H529" transform="translate(-35.04 -64.46)"/><path class="cls-6" d="M216.23,485.89l202-1.61-1,72.15.35,50.83,114.81-.52-.18-114.81,10.34.18v6.13a4.67,4.67,0,0,0,3.86,3.86h14.19s3.69-1.05,4-4.21v-4.2s-.71-3.16-3-4h8.76V354.52h-8.76v-1.75a3.47,3.47,0,0,0,3.15-3.51v-3.51" transform="translate(-35.04 -64.46)"/><rect class="cls-7" x="401.25" y="290.23" width="34.6" height="11.82"/><rect class="cls-7" x="120.47" y="290.23" width="34.6" height="12.08"/><path class="cls-7" d="M419.2,487l.54,8.21,18.63-.36.19,25.26H459l19.4-19.39V477.49H453V468H429.88v11H203.07V472.8l.09,1.46-34.1.69H110l-11.64,2.84v16.58h13.15l.22,15.87,19.9.06.35-11.16H146.5s.08-8.32-.07-8.53,59.84-1.06,59.84-1.06l0-1.44.27-1.89a.16.16,0,0,1,.15-.27l9.23-.12.29,1.45Z" transform="translate(-35.04 -64.46)"/><path class="cls-7" d="M156.29,485.29l17.76,1.14,2.09.07,0-3.72H186v3.63l20.28-.22.28,4.12,4.16,1.24.87,2-.08,2-.64,4.28-2.06,2.33c-5.13.08-18.49,1-19.42-1.62-.05-.14-16.05-.43-16.05.12,0,2-20.24.67-20.79.74,0,0-1.06-4-.53-4.53s-5.17-.65-5.17-.65v-7.32l8.4,1.41Z" transform="translate(-35.04 -64.46)"/><rect class="cls-7" x="459.3" y="421.11" width="32.47" height="17.51"/><rect class="cls-7" x="459.3" y="438.39" width="32.47" height="17.51"/><path class="cls-7" d="M564.62,348.56,563.47,351l-1,.67-1.34.34v6H544.67v-5.7s-2.85-.34-3.21-4.3l.36-2.46,22.65-.09Z" transform="translate(-35.04 -64.46)"/><path class="cls-7" d="M561.59,485.09h-17v3.48a9.91,9.91,0,0,0-2.26,5.56c-.37,3.57,1.28,6.74,2.37,7.16a26.88,26.88,0,0,0,4.74.66h9.7s5.09-1.34,5.4-3.52a23.24,23.24,0,0,0,0-4.85l-1.15-2.18-.43-.89-1.31-.93Z" transform="translate(-35.04 -64.46)"/><line class="cls-7" x1="463.34" y1="266.41" x2="463.34" y2="241.96"/><line class="cls-7" x1="488.45" y1="290.61" x2="493.81" y2="290.61"/><rect class="cls-7" x="476.38" y="254.18" width="17.35" height="36.42"/><rect class="cls-8" x="476.38" y="254.18" width="17.35" height="36.42"/><polygon class="cls-7" points="323.45 258.7 278.14 258.68 278.19 257.86 234.51 257.86 234.51 226.34 323.45 226.34 323.45 258.7"/><rect class="cls-7" x="328.18" y="257" width="12.92" height="8.89"/><path class="cls-7" d="M258.76,314.34l0-3.15-2.39,1.73-1.12,1.42H240.1l-.69-1.15-2.28-1.08-2.15-.4H214.74l-4.06,2.63H195.86l-.4-.7-1.6-1.4-2.61-.35-10.82-.05h-9.54l-1.75.94-1.33,1.56H143.58v3.33H99.41V331.6h-.34V354.2h14V348l.22-.78c-1.93.42-8.55-1-8.24-6.32s6-5.79,6-5.79h8.65v-2.45h23.88v.47H258.89V314.34Z" transform="translate(-35.04 -64.46)"/><polyline class="cls-6" points="76.81 428.75 88.16 428.75 88.16 424.13 76.71 424.13 76.71 445.78"/><line class="cls-6" x1="96.65" y1="424.29" x2="96.61" y2="445.84"/><rect class="cls-9" x="232.67" y="289.01" width="4.46" height="10.35"/><rect class="cls-9" x="253.95" y="289.01" width="49.87" height="10.35"/><rect class="cls-6" x="253.95" y="289.01" width="49.87" height="10.35"/><rect class="cls-10" x="321.19" y="289.01" width="4.46" height="10.35"/><rect class="cls-9" x="321.19" y="289.01" width="4.46" height="10.35"/><polygon class="cls-6" points="394.53 403.13 394.53 407.11 388.96 407.11 388.96 302.06 396.44 302.06 396.44 296.5 403.44 296.5 403.44 337.91 403.44 359.04 403.44 403.29 394.53 403.13"/><polyline class="cls-6" points="459.14 451.19 459.14 455.96 491.77 455.96 491.77 438.62 459.3 438.62 459.3 444.03"/><polyline class="cls-6" points="491.77 438.94 491.77 421 487.09 421"/><line class="cls-6" x1="478.77" y1="421.11" x2="472.04" y2="421.11"/><polyline class="cls-6" points="463.92 421.11 459.3 421.11 459.3 438.62"/><polyline class="cls-6" points="422.68 429.06 421.74 426.05 421.74 421.27 427.63 421.27 427.63 437.82"/><polyline class="cls-6" points="414.9 403.36 414.9 413.95 444.82 413.95 444.82 403.13 403.46 403.13"/><line class="cls-6" x1="388.96" y1="415.06" x2="384.02" y2="415.06"/><polyline class="cls-6" points="150.85 418.21 150.85 421.82 158.51 421.82"/><line class="cls-6" x1="154.36" y1="436.07" x2="138.04" y2="436.07"/><polygon class="cls-9" points="84.82 410.61 84.82 414.43 90.86 414.43 90.86 410.77 84.82 410.61"/><polygon class="cls-6" points="84.82 410.61 84.82 414.43 90.86 414.43 90.86 410.77 84.82 410.61"/><polygon class="cls-9" points="66.67 430.18 32.14 430.02 32.14 410.13 76.06 410.13 76.06 414.11 66.51 414.11 66.67 430.18"/><line class="cls-6" x1="77.99" y1="289.53" x2="77.99" y2="282.77"/><path class="cls-6" d="M119.86,347h-9.11s-5.79-1.23-5.79-6.31c0,0-.17-5.08,6-5.78h8.77v-2.28H149" transform="translate(-35.04 -64.46)"/><line class="cls-6" x1="108.04" y1="252.63" x2="108.07" y2="267.97"/><path class="cls-6" d="M167.36,314v8.75a2.78,2.78,0,0,0,2.8,2.83v7h-2.46" transform="translate(-35.04 -64.46)"/><path class="cls-6" d="M209.2,332.62h5v-7a5.36,5.36,0,0,1-4.6-3.86v-3.68a8.6,8.6,0,0,1,1.52-4.38" transform="translate(-35.04 -64.46)"/><path class="cls-6" d="M198.07,332.63l-4.94,0v-7.38s3.92.19,4.27-2.79v-5.78s-.59-2.35-2.08-3.23" transform="translate(-35.04 -64.46)"/><polyline class="cls-6" points="202.26 260.9 202.26 268.36 207.15 268.36"/><path class="cls-6" d="M237.24,325.69s3,.44,2.83-3.6l-.15-8.06" transform="translate(-35.04 -64.46)"/><polyline class="cls-6" points="218.26 268.32 223.64 268.32 223.64 246.74"/><line class="cls-6" x1="233.98" y1="246.94" x2="233.98" y2="265.87"/><polygon class="cls-9" points="234.33 256.53 234.16 258.68 240.82 258.68 240.82 256.53 234.33 256.53"/><polygon class="cls-6" points="234.33 256.53 234.16 258.68 240.82 258.68 240.82 256.53 234.33 256.53"/><polyline class="cls-6" points="278.68 255 278.68 258.68 324.25 258.68"/><polyline class="cls-6" points="148.8 289.88 165.8 289.88 165.8 288.54 215.4 288.65 215.4 299.52 168.27 299.52"/><polygon class="cls-11" points="391.73 295.49 391.73 299.35 344.93 299.35 344.93 289.53 386.82 289.53 386.82 288.31 392.25 288.31 392.25 293.04 391.73 295.49"/><path class="cls-9" d="M426.77,360.19v1.39a2.23,2.23,0,0,1-2.23,2.23H382.2a2.23,2.23,0,0,1-2.23-2.23v-5.36A2.23,2.23,0,0,1,382.2,354h39.66v-1.22h3.2a2.23,2.23,0,0,1,2.23,2.23v2.26a2.42,2.42,0,0,1-.05.47l-.42,2a1.83,1.83,0,0,0-.05.47" transform="translate(-35.04 -64.46)"/><line class="cls-6" x1="396.46" y1="289.88" x2="408.73" y2="289.88"/><line class="cls-6" x1="403.65" y1="301.98" x2="434.25" y2="301.98"/><line class="cls-6" x1="427.84" y1="290.17" x2="434.32" y2="290.17"/><line class="cls-6" x1="433.97" y1="290.23" x2="433.97" y2="301.98"/><line class="cls-6" x1="495.6" y1="327.27" x2="495.6" y2="322.06"/><line class="cls-6" x1="463.42" y1="262.36" x2="463.42" y2="266.22"/><line class="cls-6" x1="482.17" y1="282.17" x2="473.41" y2="282.17"/><line class="cls-6" x1="481.3" y1="282" x2="481.3" y2="290.62"/><polyline class="cls-6" points="473.41 290.58 493.74 290.58 493.92 288.66"/><polyline class="cls-6" points="497.25 427.47 497.25 424.49 509.52 424.49 509.52 420.81"/><polygon class="cls-12" points="477.57 532.25 487.61 532.25 487.61 465.51 477.62 465.51 477.57 532.25"/><polygon class="cls-6" points="477.57 532.25 487.61 532.25 487.61 465.51 477.62 465.51 477.57 532.25"/><polyline class="cls-6" points="130.32 289.88 119.7 289.88 114.62 289.88 114.62 292.69 116.59 292.69 116.59 302.15 168.44 302.15"/><line class="cls-6" x1="166.5" y1="289.88" x2="143.64" y2="289.88"/><line class="cls-6" x1="122.08" y1="289.88" x2="122.08" y2="302.15"/><line class="cls-6" x1="153.36" y1="290.23" x2="153.36" y2="302.33"/><line class="cls-6" x1="168.49" y1="340.9" x2="168.49" y2="299.58"/><line class="cls-13" x1="168.49" y1="373.82" x2="168.49" y2="340.95"/><polygon class="cls-6" points="158.56 425.83 158.56 421.87 156.04 421.87 156.04 426.21 158.56 425.83"/><polyline class="cls-6" points="64.2 252.72 63.91 289.53 84.74 289.6"/><polygon class="cls-9" points="122.02 289.97 114.79 289.97 114.79 292.52 116.75 292.52 116.75 302.14 121.96 302.14 121.96 292.52 122.02 292.52 122.02 289.97"/><polygon class="cls-9" points="215.24 288.54 165.8 288.54 165.8 289.77 153.28 289.77 153.28 302.15 168.44 302.15 168.44 299.32 215.24 299.32 215.24 288.54"/><rect class="cls-4" x="478.74" y="438.62" width="13.03" height="17.28"/><line class="cls-14" x1="79.84" y1="279.57" x2="79.84" y2="273.18"/><line class="cls-14" x1="80.76" y1="279.57" x2="80.76" y2="273.18"/><line class="cls-14" x1="81.79" y1="279.57" x2="81.79" y2="273.18"/><line class="cls-14" x1="82.71" y1="279.57" x2="82.71" y2="273.18"/><line class="cls-14" x1="83.63" y1="279.57" x2="83.63" y2="273.18"/><line class="cls-14" x1="84.66" y1="279.57" x2="84.66" y2="273.18"/><line class="cls-6" x1="491.19" y1="327.18" x2="485.51" y2="327.18"/><line class="cls-14" x1="491.19" y1="326.36" x2="485.51" y2="326.36"/><line class="cls-14" x1="491.19" y1="325.45" x2="485.51" y2="325.45"/><line class="cls-14" x1="491.19" y1="324.63" x2="485.51" y2="324.63"/><line class="cls-14" x1="491.19" y1="323.81" x2="485.51" y2="323.81"/><line class="cls-14" x1="491.19" y1="322.9" x2="485.51" y2="322.9"/><line class="cls-6" x1="251.37" y1="257.87" x2="244.98" y2="257.87"/><line class="cls-14" x1="251.37" y1="256.94" x2="244.98" y2="256.94"/><line class="cls-14" x1="251.37" y1="255.92" x2="244.98" y2="255.92"/><line class="cls-14" x1="251.37" y1="255" x2="244.98" y2="255"/><line class="cls-14" x1="251.37" y1="254.08" x2="244.98" y2="254.08"/><line class="cls-14" x1="251.37" y1="253.05" x2="244.98" y2="253.05"/><line class="cls-6" x1="193.67" y1="268.18" x2="187.29" y2="268.18"/><line class="cls-14" x1="193.67" y1="267.26" x2="187.29" y2="267.26"/><line class="cls-14" x1="193.67" y1="266.24" x2="187.29" y2="266.24"/><line class="cls-14" x1="193.67" y1="265.32" x2="187.29" y2="265.32"/><line class="cls-14" x1="193.67" y1="264.4" x2="187.29" y2="264.4"/><line class="cls-14" x1="193.67" y1="263.37" x2="187.29" y2="263.37"/><line class="cls-6" x1="149.97" y1="268.15" x2="143.59" y2="268.15"/><line class="cls-14" x1="149.97" y1="267.23" x2="143.59" y2="267.23"/><line class="cls-14" x1="149.97" y1="266.21" x2="143.59" y2="266.21"/><line class="cls-14" x1="149.97" y1="265.29" x2="143.59" y2="265.29"/><line class="cls-14" x1="149.97" y1="264.37" x2="143.59" y2="264.37"/><line class="cls-14" x1="149.97" y1="263.34" x2="143.59" y2="263.34"/><line class="cls-6" x1="126.48" y1="268.21" x2="120.1" y2="268.21"/><line class="cls-14" x1="126.48" y1="267.29" x2="120.1" y2="267.29"/><line class="cls-14" x1="126.48" y1="266.26" x2="120.1" y2="266.26"/><line class="cls-14" x1="126.48" y1="265.34" x2="120.1" y2="265.34"/><line class="cls-14" x1="126.48" y1="264.43" x2="120.1" y2="264.43"/><line class="cls-14" x1="126.48" y1="263.4" x2="120.1" y2="263.4"/><line class="cls-6" x1="171.59" y1="268.27" x2="165.21" y2="268.27"/><line class="cls-14" x1="171.59" y1="267.35" x2="165.21" y2="267.35"/><line class="cls-14" x1="171.59" y1="266.32" x2="165.21" y2="266.32"/><line class="cls-14" x1="171.59" y1="265.4" x2="165.21" y2="265.4"/><line class="cls-14" x1="171.59" y1="264.48" x2="165.21" y2="264.48"/><line class="cls-14" x1="171.59" y1="263.46" x2="165.21" y2="263.46"/><line class="cls-6" x1="216.23" y1="268.18" x2="209.85" y2="268.18"/><line class="cls-14" x1="216.23" y1="267.26" x2="209.85" y2="267.26"/><line class="cls-14" x1="216.23" y1="266.23" x2="209.85" y2="266.23"/><line class="cls-14" x1="216.23" y1="265.31" x2="209.85" y2="265.31"/><line class="cls-14" x1="216.23" y1="264.39" x2="209.85" y2="264.39"/><line class="cls-14" x1="216.23" y1="263.36" x2="209.85" y2="263.36"/><line class="cls-14" x1="337.99" y1="265.29" x2="331.6" y2="265.29"/><line class="cls-14" x1="337.99" y1="264.26" x2="331.6" y2="264.26"/><line class="cls-14" x1="337.99" y1="263.34" x2="331.6" y2="263.34"/><line class="cls-14" x1="337.99" y1="262.42" x2="331.6" y2="262.42"/><line class="cls-14" x1="337.99" y1="261.39" x2="331.6" y2="261.39"/><line class="cls-14" x1="355.37" y1="262.28" x2="348.98" y2="262.28"/><line class="cls-14" x1="355.37" y1="261.36" x2="348.98" y2="261.36"/><line class="cls-14" x1="355.37" y1="260.33" x2="348.98" y2="260.33"/><line class="cls-14" x1="355.37" y1="259.41" x2="348.98" y2="259.41"/><line class="cls-14" x1="355.37" y1="258.49" x2="348.98" y2="258.49"/><line class="cls-14" x1="355.37" y1="257.46" x2="348.98" y2="257.46"/><rect class="cls-9" x="255.15" y="253.48" width="3.92" height="5.2"/><rect class="cls-6" x="255.15" y="253.48" width="3.92" height="5.2"/><line class="cls-14" x1="491.17" y1="444.82" x2="485.49" y2="444.82"/><line class="cls-14" x1="491.17" y1="444" x2="485.49" y2="444"/><line class="cls-14" x1="491.17" y1="443.09" x2="485.49" y2="443.09"/><line class="cls-14" x1="491.17" y1="442.27" x2="485.49" y2="442.27"/><line class="cls-14" x1="491.17" y1="441.45" x2="485.49" y2="441.45"/><line class="cls-14" x1="491.17" y1="440.54" x2="485.49" y2="440.54"/><line class="cls-14" x1="486.04" y1="425.71" x2="479.65" y2="425.71"/><line class="cls-14" x1="486.04" y1="424.79" x2="479.65" y2="424.79"/><line class="cls-14" x1="486.04" y1="423.76" x2="479.65" y2="423.76"/><line class="cls-14" x1="486.04" y1="422.84" x2="479.65" y2="422.84"/><line class="cls-14" x1="486.04" y1="421.92" x2="479.65" y2="421.92"/><line class="cls-6" x1="486.04" y1="420.89" x2="479.65" y2="420.89"/><line class="cls-14" x1="471.21" y1="425.71" x2="464.83" y2="425.71"/><line class="cls-14" x1="471.21" y1="424.79" x2="464.83" y2="424.79"/><line class="cls-14" x1="471.21" y1="423.76" x2="464.83" y2="423.76"/><line class="cls-14" x1="471.21" y1="422.84" x2="464.83" y2="422.84"/><line class="cls-14" x1="471.21" y1="421.92" x2="464.83" y2="421.92"/><line class="cls-6" x1="471.21" y1="420.89" x2="464.83" y2="420.89"/><line class="cls-14" x1="434.87" y1="425.71" x2="428.49" y2="425.71"/><line class="cls-14" x1="434.87" y1="424.79" x2="428.49" y2="424.79"/><line class="cls-14" x1="434.87" y1="423.76" x2="428.49" y2="423.76"/><line class="cls-14" x1="434.87" y1="422.84" x2="428.49" y2="422.84"/><line class="cls-14" x1="434.87" y1="421.92" x2="428.49" y2="421.92"/><line class="cls-14" x1="434.87" y1="420.89" x2="428.49" y2="420.89"/><line class="cls-14" x1="395.14" y1="426.41" x2="388.76" y2="426.41"/><line class="cls-14" x1="395.14" y1="425.49" x2="388.76" y2="425.49"/><line class="cls-14" x1="395.14" y1="424.46" x2="388.76" y2="424.46"/><line class="cls-14" x1="395.14" y1="423.54" x2="388.76" y2="423.54"/><line class="cls-14" x1="395.14" y1="422.62" x2="388.76" y2="422.62"/><line class="cls-14" x1="395.14" y1="421.59" x2="388.76" y2="421.59"/><line class="cls-14" x1="131.01" y1="426.42" x2="124.63" y2="426.42"/><line class="cls-14" x1="131.01" y1="425.5" x2="124.63" y2="425.5"/><line class="cls-14" x1="131.01" y1="424.47" x2="124.63" y2="424.47"/><line class="cls-14" x1="131.01" y1="423.55" x2="124.63" y2="423.55"/><line class="cls-14" x1="131.01" y1="422.63" x2="124.63" y2="422.63"/><line class="cls-14" x1="131.01" y1="421.6" x2="124.63" y2="421.6"/><line class="cls-14" x1="168.41" y1="426.42" x2="162.02" y2="426.42"/><line class="cls-14" x1="168.41" y1="425.5" x2="162.02" y2="425.5"/><line class="cls-14" x1="168.41" y1="424.47" x2="162.02" y2="424.47"/><line class="cls-14" x1="168.41" y1="423.55" x2="162.02" y2="423.55"/><line class="cls-14" x1="168.41" y1="422.63" x2="162.02" y2="422.63"/><line class="cls-14" x1="168.41" y1="421.6" x2="162.02" y2="421.6"/><line class="cls-14" x1="148.95" y1="423.54" x2="142.56" y2="423.54"/><line class="cls-14" x1="148.95" y1="422.63" x2="142.56" y2="422.63"/><line class="cls-14" x1="148.95" y1="421.6" x2="142.56" y2="421.6"/><line class="cls-14" x1="148.95" y1="420.68" x2="142.56" y2="420.68"/><line class="cls-14" x1="148.95" y1="419.76" x2="142.56" y2="419.76"/><line class="cls-14" x1="148.95" y1="418.73" x2="142.56" y2="418.73"/><polygon class="cls-9" points="508.11 427.86 496.34 427.86 496.34 424.49 509.78 424.49 508.11 427.86"/><rect class="cls-12" x="434.39" y="289.77" width="11.69" height="12.36"/><rect class="cls-12" x="414.9" y="403.36" width="29.92" height="10.59"/><polygon class="cls-12" points="403.8 289.56 396.08 289.56 396.08 302.13 389.11 302.13 389.11 395.54 389.02 395.54 389.02 407.1 394.53 407.1 394.53 403.1 403.2 403.1 403.2 307.37 403.8 307.37 403.8 289.56"/><polygon class="cls-15" points="427.69 438.39 422.81 438.69 422.64 428.76 421.91 427.13 421.91 421.35 427.69 421.35 427.69 438.39"/><rect class="cls-9" x="156.23" y="422.04" width="2.29" height="3.91"/><rect class="cls-9" x="134.41" y="422.04" width="2.29" height="3.91"/><rect class="cls-10" x="131.1" y="289.51" width="11.33" height="11.33"/><rect class="cls-7" x="136.6" y="291.01" width="0.79" height="8.33"/><path class="cls-7" d="M174.72,356.77a.68.68,0,1,1,0-1.36.68.68,0,0,1,0,1.36" transform="translate(-35.04 -64.46)"/><path class="cls-7" d="M173.67,358.49V360c0,.29-.09.35-.25.35s-.26-.07-.26-.35v-1.9c0-.83.31-1.05,1-1.05h1.12c.68,0,1,.22,1,1.05V360c0,.28-.09.35-.27.35s-.24-.07-.24-.35v-1.47c0-.16-.05-.19-.09-.19s-.11,0-.11.19v5a.37.37,0,1,1-.74,0v-2.93c0-.06,0-.14-.1-.14s-.1,0-.1.14v2.93a.36.36,0,0,1-.38.38.35.35,0,0,1-.36-.39v-5c0-.19-.06-.19-.11-.19s-.09,0-.09.19" transform="translate(-35.04 -64.46)"/><path class="cls-7" d="M169,356.77a.68.68,0,1,1,0-1.36.68.68,0,0,1,0,1.36" transform="translate(-35.04 -64.46)"/><path class="cls-7" d="M169.38,357a.88.88,0,0,1,.94.73l.56,1.88c.06.18,0,.31-.14.35a.25.25,0,0,1-.31-.2l-.49-1.67c0-.11-.06-.16-.14-.13s-.08.12-.05.22l.91,3h-1v2.27c0,.35-.19.39-.26.39s-.31,0-.31-.37v-2.16c0-.1,0-.15-.09-.15s-.11,0-.11.14v2.16c0,.34-.21.38-.28.38s-.28,0-.28-.39v-2.27h-1l.91-3c0-.1.07-.19,0-.22s-.13,0-.16.13l-.48,1.67a.26.26,0,0,1-.32.2c-.14,0-.2-.17-.14-.35l.57-1.88a.86.86,0,0,1,.93-.73Z" transform="translate(-35.04 -64.46)"/><rect class="cls-12" x="76.71" y="424.13" width="11.46" height="4.62"/><path class="cls-6" d="M417.48,606.84l114.81-.1-.18-115.23,10.34.18v6.13a4.67,4.67,0,0,0,3.86,3.86h14.2s3.68-1.05,4-4.21v-4.2s-.7-3.16-3-3.69h8.76V354.1h-8.76v-1.75a3.47,3.47,0,0,0,3.15-3.51v-3.51H541.58v4.39a4.08,4.08,0,0,0,3.15,3h-16" transform="translate(-35.04 -64.46)"/><rect class="cls-4" x="97.62" y="435.06" width="12.74" height="8.91"/><rect class="cls-10" x="469.64" y="281.79" width="12.84" height="12.84"/><path class="cls-10" d="M513.91,358a.7.7,0,0,0,.7-.7v-5.61a.7.7,0,0,0-.7-.71h-5.62a.71.71,0,0,0-.7.71v5.61a.7.7,0,0,0,.7.7Z" transform="translate(-35.04 -64.46)"/><path class="cls-16" d="M513.91,358a.7.7,0,0,0,.7-.7v-5.61a.7.7,0,0,0-.7-.71h-5.62a.71.71,0,0,0-.7.71v5.61a.7.7,0,0,0,.7.7Z" transform="translate(-35.04 -64.46)"/><polygon class="cls-7" points="474.51 282.29 475.71 283.49 475.71 284.35 474.82 283.41 474.81 285.49 474.2 285.49 474.2 283.41 473.3 284.35 473.3 283.49 474.51 282.29"/><polygon class="cls-7" points="477.82 285.62 476.62 284.42 476.62 283.55 477.51 284.49 477.51 282.42 478.13 282.42 478.13 284.5 479.03 283.56 479.03 284.41 477.82 285.62"/><path class="cls-7" d="M513.14,353.43a.37.37,0,0,1-.37-.37.37.37,0,0,1,.74,0,.37.37,0,0,1-.37.37" transform="translate(-35.04 -64.46)"/><path class="cls-7" d="M512.57,354.37v.8c0,.16-.06.19-.14.19s-.14,0-.14-.19v-1c0-.45.17-.57.54-.57h.61c.37,0,.54.12.54.57v1c0,.16-.05.19-.15.19s-.13,0-.13-.19v-.8c0-.09,0-.11-.05-.11s-.06,0-.06.11v2.73a.18.18,0,0,1-.2.2.19.19,0,0,1-.2-.2v-1.6s0-.08-.06-.08,0,0,0,.08v1.6a.19.19,0,0,1-.21.2.18.18,0,0,1-.2-.2v-2.73c0-.11,0-.11,0-.11s0,0,0,.11" transform="translate(-35.04 -64.46)"/><path class="cls-7" d="M509,353.43a.38.38,0,0,1-.37-.37.38.38,0,0,1,.75,0,.38.38,0,0,1-.38.37" transform="translate(-35.04 -64.46)"/><path class="cls-7" d="M508.47,354.37v.8c0,.16-.05.19-.13.19s-.15,0-.15-.19v-1c0-.45.18-.57.54-.57h.61c.38,0,.55.12.55.57v1c0,.16-.06.19-.15.19s-.13,0-.13-.19v-.8c0-.09,0-.11-.05-.11s-.06,0-.06.11v2.73a.18.18,0,0,1-.2.2.19.19,0,0,1-.21-.2v-1.6s0-.08,0-.08-.05,0-.05.08v1.6a.19.19,0,0,1-.21.2.18.18,0,0,1-.2-.2v-2.73c0-.11,0-.11-.06-.11s0,0,0,.11" transform="translate(-35.04 -64.46)"/><path class="cls-7" d="M511.1,353.42a.37.37,0,0,1-.37-.37.38.38,0,0,1,.37-.37.37.37,0,0,1,.37.37.36.36,0,0,1-.37.37" transform="translate(-35.04 -64.46)"/><path class="cls-7" d="M511.31,353.57a.48.48,0,0,1,.51.39l.31,1c0,.1,0,.17-.08.19a.14.14,0,0,1-.17-.11l-.26-.91c0-.06,0-.09-.08-.07s0,.06,0,.12l.5,1.63h-.55v1.24c0,.19-.1.21-.15.21s-.16,0-.16-.2v-1.18c0-.05,0-.07,0-.07s-.06,0-.06.07v1.18c0,.18-.11.2-.16.2s-.14,0-.14-.21v-1.24h-.56l.5-1.63c0-.06,0-.1,0-.12s-.07,0-.09.07l-.26.91a.14.14,0,0,1-.17.11c-.08,0-.11-.09-.08-.19l.31-1a.48.48,0,0,1,.51-.39Z" transform="translate(-35.04 -64.46)"/><rect class="cls-10" x="222.45" y="250.73" width="12.84" height="12.84"/><path class="cls-10" d="M226.07,255.44h5.61a.71.71,0,0,1,.71.71v5.61a.7.7,0,0,1-.7.7h-5.61a.7.7,0,0,1-.7-.7v-5.62A.7.7,0,0,1,226.07,255.44Z"/><path class="cls-16" d="M226.07,255.44h5.61a.71.71,0,0,1,.71.71v5.61a.7.7,0,0,1-.7.7h-5.61a.7.7,0,0,1-.7-.7v-5.62A.7.7,0,0,1,226.07,255.44Z"/><polygon class="cls-7" points="227.31 251.23 228.52 252.43 228.52 253.29 227.62 252.35 227.62 254.43 227.01 254.43 227.01 252.35 226.11 253.29 226.11 252.43 227.31 251.23"/><polygon class="cls-7" points="230.63 254.56 229.43 253.36 229.43 252.49 230.32 253.44 230.32 251.36 230.94 251.36 230.94 253.44 231.84 252.5 231.84 253.35 230.63 254.56"/><path class="cls-7" d="M266,322.37a.38.38,0,0,1-.38-.37.38.38,0,0,1,.75,0,.38.38,0,0,1-.37.37" transform="translate(-35.04 -64.46)"/><path class="cls-7" d="M265.37,323.31v.8c0,.16-.05.2-.13.2s-.15,0-.15-.2v-1c0-.45.18-.57.55-.57h.61c.37,0,.54.12.54.57v1c0,.16-.06.2-.15.2s-.13,0-.13-.2v-.8c0-.09,0-.1-.05-.1s-.06,0-.06.1V326a.19.19,0,0,1-.2.21A.2.2,0,0,1,266,326v-1.6s0-.07-.05-.07-.05,0-.05.07V326a.2.2,0,0,1-.21.21.19.19,0,0,1-.2-.21v-2.73c0-.1,0-.1-.06-.1s-.05,0-.05.1" transform="translate(-35.04 -64.46)"/><path class="cls-7" d="M261.85,322.37a.38.38,0,0,1-.37-.37.38.38,0,0,1,.75,0,.38.38,0,0,1-.38.37" transform="translate(-35.04 -64.46)"/><path class="cls-7" d="M261.28,323.31v.8c0,.16,0,.2-.13.2s-.15,0-.15-.2v-1c0-.45.17-.57.54-.57h.61c.37,0,.55.12.55.57v1c0,.16-.06.2-.15.2s-.14,0-.14-.2v-.8c0-.09,0-.1-.05-.1s-.05,0-.05.1V326a.19.19,0,0,1-.21.21.2.2,0,0,1-.2-.21v-1.6s0-.07,0-.07-.06,0-.06.07V326a.19.19,0,0,1-.21.21.18.18,0,0,1-.19-.21v-2.73c0-.1,0-.1-.06-.1s-.05,0-.05.1" transform="translate(-35.04 -64.46)"/><path class="cls-7" d="M263.91,322.37a.38.38,0,0,1,0-.75.38.38,0,0,1,0,.75" transform="translate(-35.04 -64.46)"/><path class="cls-7" d="M264.12,322.51a.48.48,0,0,1,.51.39l.31,1c0,.1,0,.17-.08.19s-.14,0-.17-.11l-.26-.91c0-.06,0-.09-.09-.07s0,.06,0,.12l.5,1.64h-.55V326c0,.19-.11.21-.15.21s-.17,0-.17-.2v-1.18c0-.05,0-.07-.05-.07s0,0,0,.07V326c0,.18-.12.2-.16.2s-.15,0-.15-.21v-1.23H263l.5-1.64c0-.06,0-.1,0-.12s-.07,0-.09.07l-.26.91a.14.14,0,0,1-.17.11c-.08,0-.11-.09-.08-.19l.31-1a.47.47,0,0,1,.5-.39Z" transform="translate(-35.04 -64.46)"/><rect class="cls-17" x="465.1" y="441.7" width="12.84" height="12.85"/><rect class="cls-17" x="411.7" y="288.13" width="12.84" height="12.85"/><rect class="cls-10" x="261.99" y="244.79" width="12.74" height="12.74"/><path class="cls-7" d="M307.34,312.09h-1.75a1,1,0,0,0-.72.26l-1.6,1.57v-.44a.68.68,0,0,0-.68-.62.66.66,0,0,0-.68.61v1.79l-1.39,1.37a.29.29,0,0,1-.2.08h-.88a1.31,1.31,0,0,0,0,2.61h1.75a.85.85,0,0,0,.57-.22l4.4-4.33a.22.22,0,0,1,.13-.06h1.08a1.33,1.33,0,0,0,1.19-1.32,1.29,1.29,0,0,0-1.19-1.3m-.09,2h-1.11a.67.67,0,0,0-.49.23l-4.31,4.27a.48.48,0,0,1-.3.12h-1.53a.64.64,0,0,1-.61-.64.66.66,0,0,1,.15-.43.56.56,0,0,1,.43-.21h.95a.78.78,0,0,0,.51-.22l4.29-4.23a.57.57,0,0,1,.42-.16h1.56a.64.64,0,0,1,0,1.28" transform="translate(-35.04 -64.46)"/><path class="cls-7" d="M301.94,312.05a.65.65,0,1,0,.65-.66.65.65,0,0,0-.65.66" transform="translate(-35.04 -64.46)"/><rect class="cls-10" x="77.65" y="282.54" width="12.84" height="12.84"/><path class="cls-10" d="M121.92,358.73a.7.7,0,0,0,.7-.7v-5.61a.7.7,0,0,0-.7-.71H116.3a.7.7,0,0,0-.7.71V358a.7.7,0,0,0,.7.7Z" transform="translate(-35.04 -64.46)"/><path class="cls-16" d="M121.92,358.73a.7.7,0,0,0,.7-.7v-5.61a.7.7,0,0,0-.7-.71H116.3a.7.7,0,0,0-.7.71V358a.7.7,0,0,0,.7.7Z" transform="translate(-35.04 -64.46)"/><polygon class="cls-7" points="82.52 283.04 83.72 284.24 83.72 285.11 82.83 284.16 82.82 286.24 82.21 286.24 82.21 284.16 81.31 285.1 81.31 284.24 82.52 283.04"/><polygon class="cls-7" points="85.83 286.37 84.63 285.17 84.63 284.31 85.52 285.25 85.52 283.17 86.14 283.17 86.14 285.25 87.03 284.31 87.03 285.17 85.83 286.37"/><path class="cls-7" d="M121.15,354.18a.37.37,0,0,1-.37-.37.37.37,0,0,1,.74,0,.37.37,0,0,1-.37.37" transform="translate(-35.04 -64.46)"/><path class="cls-7" d="M120.57,355.12v.81c0,.15,0,.19-.13.19s-.15,0-.15-.19v-1c0-.46.18-.58.55-.58h.61c.37,0,.54.12.54.58v1c0,.15,0,.19-.15.19s-.13,0-.13-.19v-.81c0-.09,0-.1,0-.1s-.06,0-.06.1v2.73a.19.19,0,0,1-.2.21.2.2,0,0,1-.2-.21v-1.6s0-.07-.06-.07,0,0,0,.07v1.6a.2.2,0,0,1-.21.21.19.19,0,0,1-.2-.21v-2.73c0-.1,0-.1-.05-.1s-.06,0-.06.1" transform="translate(-35.04 -64.46)"/><path class="cls-7" d="M117.05,354.18a.38.38,0,0,1-.37-.37.38.38,0,0,1,.75,0,.38.38,0,0,1-.38.37" transform="translate(-35.04 -64.46)"/><path class="cls-7" d="M116.48,355.12v.81c0,.15,0,.19-.13.19s-.15,0-.15-.19v-1c0-.46.17-.58.54-.58h.61c.37,0,.55.12.55.58v1c0,.15-.06.19-.15.19s-.14,0-.14-.19v-.81c0-.09,0-.1,0-.1s0,0,0,.1v2.73a.19.19,0,0,1-.21.21.2.2,0,0,1-.2-.21v-1.6s0-.07,0-.07-.06,0-.06.07v1.6a.19.19,0,0,1-.2.21.19.19,0,0,1-.2-.21v-2.73c0-.1,0-.1-.06-.1s0,0,0,.1" transform="translate(-35.04 -64.46)"/><path class="cls-7" d="M119.11,354.18a.37.37,0,0,1-.37-.37.37.37,0,0,1,.74,0,.37.37,0,0,1-.37.37" transform="translate(-35.04 -64.46)"/><path class="cls-7" d="M119.32,354.32a.48.48,0,0,1,.51.4l.31,1c0,.1,0,.17-.08.19a.14.14,0,0,1-.17-.11l-.26-.91c0-.06,0-.09-.08-.07s0,.07,0,.12l.5,1.64h-.55v1.23c0,.2-.1.21-.15.21s-.17,0-.17-.2v-1.18c0-.05,0-.07,0-.07s-.06,0-.06.07v1.18c0,.18-.12.2-.16.2s-.15,0-.15-.21V356.6h-.55l.5-1.64s0-.1,0-.12-.07,0-.09.07l-.26.91a.14.14,0,0,1-.17.11c-.08,0-.11-.09-.08-.19l.31-1a.48.48,0,0,1,.51-.4Z" transform="translate(-35.04 -64.46)"/><rect class="cls-9" x="388.98" y="403.39" width="5.87" height="10.07"/><rect class="cls-10" x="407.07" y="421.24" width="12.84" height="12.84"/><path class="cls-10" d="M451.34,497.43a.7.7,0,0,0,.7-.7v-5.61a.7.7,0,0,0-.7-.71h-5.62a.71.71,0,0,0-.7.71v5.61a.7.7,0,0,0,.7.7Z" transform="translate(-35.04 -64.46)"/><path class="cls-16" d="M451.34,497.43a.7.7,0,0,0,.7-.7v-5.61a.7.7,0,0,0-.7-.71h-5.62a.71.71,0,0,0-.7.71v5.61a.7.7,0,0,0,.7.7Z" transform="translate(-35.04 -64.46)"/><polygon class="cls-7" points="411.94 421.74 413.14 422.94 413.14 423.81 412.25 422.86 412.25 424.94 411.63 424.94 411.63 422.86 410.73 423.8 410.73 422.94 411.94 421.74"/><polygon class="cls-7" points="415.26 425.07 414.05 423.87 414.05 423 414.95 423.94 414.95 421.87 415.56 421.87 415.56 423.95 416.46 423.01 416.46 423.87 415.26 425.07"/><path class="cls-7" d="M450.57,492.88a.38.38,0,0,1-.37-.37.37.37,0,0,1,.37-.37.36.36,0,0,1,.37.37.37.37,0,0,1-.37.37" transform="translate(-35.04 -64.46)"/><path class="cls-7" d="M450,493.82v.81c0,.15-.06.19-.14.19s-.14,0-.14-.19v-1c0-.46.17-.58.54-.58h.61c.37,0,.54.12.54.58v1c0,.15-.05.19-.15.19s-.13,0-.13-.19v-.81c0-.09,0-.1-.05-.1s-.06,0-.06.1v2.73a.19.19,0,0,1-.2.21.2.2,0,0,1-.2-.21V495s0-.07-.05-.07-.06,0-.06.07v1.6a.2.2,0,0,1-.21.21.19.19,0,0,1-.2-.21v-2.73c0-.1,0-.1-.05-.1s-.05,0-.05.1" transform="translate(-35.04 -64.46)"/><path class="cls-7" d="M446.47,492.88a.38.38,0,0,1-.37-.37.38.38,0,0,1,.75,0,.38.38,0,0,1-.38.37" transform="translate(-35.04 -64.46)"/><path class="cls-7" d="M445.9,493.82v.81c0,.15,0,.19-.13.19s-.15,0-.15-.19v-1c0-.46.18-.58.54-.58h.61c.38,0,.55.12.55.58v1c0,.15-.06.19-.15.19s-.13,0-.13-.19v-.81c0-.09,0-.1-.05-.1s-.06,0-.06.1v2.73a.2.2,0,1,1-.4,0V495s0-.07-.06-.07-.05,0-.05.07v1.6a.2.2,0,0,1-.21.21.19.19,0,0,1-.2-.21v-2.73c0-.1,0-.1-.05-.1s-.06,0-.06.1" transform="translate(-35.04 -64.46)"/><path class="cls-7" d="M448.53,492.88a.38.38,0,0,1-.37-.37.37.37,0,0,1,.37-.37.36.36,0,0,1,.37.37.37.37,0,0,1-.37.37" transform="translate(-35.04 -64.46)"/><path class="cls-7" d="M448.74,493a.48.48,0,0,1,.51.4l.31,1c0,.1,0,.17-.08.19a.14.14,0,0,1-.17-.11l-.26-.91c0-.06,0-.08-.08-.07s0,.07,0,.12l.49,1.64h-.55v1.23c0,.2-.1.21-.15.21s-.16,0-.16-.19v-1.18c0-.06,0-.08-.05-.08s-.06,0-.06.07v1.18c0,.18-.11.2-.16.2s-.14,0-.14-.21V495.3h-.56l.5-1.64c0-.05,0-.1,0-.12s-.07,0-.08.07l-.27.91c0,.09-.09.13-.17.11s-.11-.09-.07-.19l.3-1a.48.48,0,0,1,.51-.4Z" transform="translate(-35.04 -64.46)"/><rect class="cls-4" x="407.08" y="435.49" width="12.74" height="12.75"/><rect class="cls-12" x="344.93" y="289.53" width="27.13" height="9.81"/><rect class="cls-9" x="344.93" y="289.53" width="27.13" height="9.81"/><rect class="cls-7" x="477.61" y="523.21" width="10.02" height="8.67"/><line class="cls-14" x1="485.81" y1="529.22" x2="479.79" y2="529.22"/><line class="cls-14" x1="485.81" y1="528.35" x2="479.79" y2="528.35"/><line class="cls-14" x1="485.81" y1="527.38" x2="479.79" y2="527.38"/><line class="cls-14" x1="485.81" y1="526.52" x2="479.79" y2="526.52"/><line class="cls-14" x1="485.81" y1="525.65" x2="479.79" y2="525.65"/><polyline class="cls-14" points="479.38 524.75 478.22 524.75 478.22 530.24 487.12 530.24 487.12 524.75 486.08 524.75"/><path class="cls-6" d="M191.07,490.67a4.18,4.18,0,0,0-2.51,3.77l-.1,3.19s-.78,4.36,6.14,4.49h12.32a4.15,4.15,0,0,0,4.4-3.78v-4.9s.13-3-5-3.27v-4.28h9.94v1.38" transform="translate(-35.04 -64.46)"/><path class="cls-6" d="M175.86,482.65v3.71h-6.51v3.82h1.91c3.24.37,3,4.14,3,4.14v4a2.88,2.88,0,0,1-1.21,2.26,5.72,5.72,0,0,1-2.77.93H154.23c-2.46-.29-2.39-3.66-2.39-3.66v-3.66c-.07-3.55,2.71-3.35,2.71-3.35h2.54v-5.4h-2.38v3.34h-8.12v7.32h5.25" transform="translate(-35.04 -64.46)"/><path class="cls-4" d="M457.73,493.37v8.91h15.44a5.79,5.79,0,0,0,3.18-4.61v-4a4.2,4.2,0,0,0-2.21-3.16l-.38,0-2.82,0v-5.25h2.87v.6l.06,0h5.67v37.32H457.89V502.36" transform="translate(-35.04 -64.46)"/><rect class="cls-7" x="28.03" y="276.66" width="23.3" height="16.79"/><polyline class="cls-6" points="48.81 293.47 51.4 293.47 51.4 276.44 28 276.76 28 293.47 30.51 293.47"/><line class="cls-14" x1="39.03" y1="293.43" x2="32.64" y2="293.43"/><line class="cls-14" x1="39.03" y1="292.51" x2="32.64" y2="292.51"/><line class="cls-14" x1="39.03" y1="291.48" x2="32.64" y2="291.48"/><line class="cls-14" x1="39.03" y1="290.56" x2="32.64" y2="290.56"/><line class="cls-14" x1="39.03" y1="289.64" x2="32.64" y2="289.64"/><line class="cls-14" x1="39.03" y1="288.62" x2="32.64" y2="288.62"/><line class="cls-14" x1="47.41" y1="293.43" x2="41.02" y2="293.43"/><line class="cls-14" x1="47.41" y1="292.51" x2="41.02" y2="292.51"/><line class="cls-14" x1="47.41" y1="291.48" x2="41.02" y2="291.48"/><line class="cls-14" x1="47.41" y1="290.56" x2="41.02" y2="290.56"/><line class="cls-14" x1="47.41" y1="289.64" x2="41.02" y2="289.64"/><line class="cls-14" x1="47.41" y1="288.62" x2="41.02" y2="288.62"/><rect class="cls-10" x="134.64" y="272.86" width="12.74" height="12.74"/><path class="cls-7" d="M180,340.16h-1.76a1,1,0,0,0-.72.25l-1.6,1.57v-.44a.67.67,0,0,0-.68-.62.65.65,0,0,0-.67.62v1.78l-1.39,1.37a.26.26,0,0,1-.2.09h-.88a1.31,1.31,0,0,0-1.22,1.32,1.3,1.3,0,0,0,1.19,1.29h1.75a.84.84,0,0,0,.56-.22l4.4-4.33a.22.22,0,0,1,.14-.06H180a1.35,1.35,0,0,0,1.18-1.33,1.29,1.29,0,0,0-1.18-1.3m-.1,1.95h-1.1a.68.68,0,0,0-.5.24L174,346.61a.48.48,0,0,1-.29.12h-1.53a.63.63,0,0,1-.62-.64.58.58,0,0,1,.16-.42.57.57,0,0,1,.43-.22h1a.8.8,0,0,0,.51-.22l4.29-4.23a.59.59,0,0,1,.42-.16h1.56a.64.64,0,0,1,0,1.28" transform="translate(-35.04 -64.46)"/><path class="cls-7" d="M174.59,340.12a.66.66,0,0,0,.65.66.67.67,0,0,0,.66-.66.66.66,0,0,0-1.31,0" transform="translate(-35.04 -64.46)"/><rect class="cls-10" x="198.45" y="272.75" width="12.74" height="12.74"/><path class="cls-7" d="M243.81,340.05h-1.75a1,1,0,0,0-.72.26l-1.6,1.57v-.44a.68.68,0,0,0-.69-.62.66.66,0,0,0-.67.61v1.79L237,344.58a.29.29,0,0,1-.2.08h-.88a1.31,1.31,0,0,0,0,2.61h1.75a.85.85,0,0,0,.57-.22l4.39-4.33a.24.24,0,0,1,.14-.06h1.08a1.34,1.34,0,0,0,1.18-1.33,1.29,1.29,0,0,0-1.18-1.3m-.1,1.95h-1.1a.67.67,0,0,0-.49.23l-4.31,4.27a.51.51,0,0,1-.3.12H236a.64.64,0,0,1-.62-.64.67.67,0,0,1,.16-.43.59.59,0,0,1,.43-.21h1a.78.78,0,0,0,.51-.22l4.29-4.23a.55.55,0,0,1,.42-.16h1.56a.64.64,0,0,1,0,1.28" transform="translate(-35.04 -64.46)"/><path class="cls-7" d="M238.4,340a.66.66,0,1,0,.66-.66.66.66,0,0,0-.66.66" transform="translate(-35.04 -64.46)"/><rect class="cls-10" x="349.12" y="272.75" width="12.74" height="12.74"/><path class="cls-7" d="M394.47,340.05h-1.75a1,1,0,0,0-.72.26l-1.6,1.57v-.44a.68.68,0,0,0-.68-.62.65.65,0,0,0-.67.61v1.79l-1.38,1.37a.31.31,0,0,1-.21.08h-.88a1.31,1.31,0,0,0,0,2.61h1.75a.85.85,0,0,0,.57-.22l4.4-4.33a.22.22,0,0,1,.13-.06h1.08a1.35,1.35,0,0,0,1.19-1.33,1.29,1.29,0,0,0-1.19-1.3m-.09,1.95h-1.11a.68.68,0,0,0-.49.23l-4.31,4.27a.48.48,0,0,1-.3.12h-1.53A.64.64,0,0,1,386,346a.66.66,0,0,1,.15-.43.6.6,0,0,1,.44-.21h.94a.82.82,0,0,0,.52-.22l4.29-4.23a.54.54,0,0,1,.42-.16h1.55a.65.65,0,0,1,.65.64.65.65,0,0,1-.61.64" transform="translate(-35.04 -64.46)"/><path class="cls-7" d="M389.07,340a.65.65,0,0,0,.65.66.67.67,0,0,0,.66-.66.66.66,0,0,0-.66-.66.65.65,0,0,0-.65.66" transform="translate(-35.04 -64.46)"/><rect class="cls-10" x="405.91" y="272.75" width="12.74" height="12.74"/><path class="cls-7" d="M451.27,340.05h-1.75a1,1,0,0,0-.72.26l-1.61,1.57v-.44a.67.67,0,0,0-.68-.62.66.66,0,0,0-.67.61v1.79l-1.39,1.37a.29.29,0,0,1-.2.08h-.88a1.31,1.31,0,0,0,0,2.61h1.75a.87.87,0,0,0,.57-.22l4.39-4.33a.24.24,0,0,1,.14-.06h1.08a1.34,1.34,0,0,0,1.18-1.33,1.29,1.29,0,0,0-1.18-1.3m-.1,1.95h-1.1a.67.67,0,0,0-.49.23l-4.32,4.27a.48.48,0,0,1-.29.12h-1.53a.64.64,0,0,1-.62-.64.67.67,0,0,1,.16-.43.59.59,0,0,1,.43-.21h.95a.78.78,0,0,0,.51-.22l4.29-4.23a.55.55,0,0,1,.42-.16h1.56a.64.64,0,0,1,0,1.28" transform="translate(-35.04 -64.46)"/><path class="cls-7" d="M445.86,340a.66.66,0,1,0,.66-.66.66.66,0,0,0-.66.66" transform="translate(-35.04 -64.46)"/><rect class="cls-7" x="151.55" y="367.28" width="51.81" height="108.11" transform="translate(-35.78 -64.14) rotate(-0.1)"/><rect class="cls-18" x="151.55" y="367.28" width="51.81" height="108.11" transform="translate(-35.78 -64.14) rotate(-0.1)"/><rect class="cls-7" x="66.4" y="367.65" width="70.59" height="107.15" transform="translate(-35.78 -64.28) rotate(-0.1)"/><rect class="cls-18" x="66.4" y="367.65" width="70.59" height="107.15" transform="translate(-35.78 -64.28) rotate(-0.1)"/><rect class="cls-7" x="438.99" y="368.28" width="41.17" height="98.96" transform="translate(-35.78 -63.64) rotate(-0.1)"/><rect class="cls-18" x="438.99" y="368.28" width="41.17" height="98.96" transform="translate(-35.78 -63.64) rotate(-0.1)"/><line class="cls-6" x1="180.55" y1="422.73" x2="382.88" y2="423.47"/><polyline class="cls-13" points="278.67 299.52 278.67 385.14 278.67 411.4"/><line class="cls-6" x1="481.58" y1="357.45" x2="455.84" y2="357.45"/><line class="cls-13" x1="444.06" y1="339.96" x2="403.3" y2="339.96"/><line class="cls-13" x1="443.7" y1="320.73" x2="403.3" y2="320.73"/><line class="cls-13" x1="443.97" y1="380.32" x2="403.3" y2="380.32"/><line class="cls-6" x1="69.23" y1="410.29" x2="69.23" y2="302.04"/><line class="cls-13" x1="118.83" y1="318.98" x2="168.61" y2="318.98"/><line class="cls-13" x1="118.48" y1="339.13" x2="168.78" y2="339.13"/><line class="cls-13" x1="118.48" y1="375.94" x2="168.43" y2="375.94"/><line class="cls-13" x1="118.48" y1="394.74" x2="168.43" y2="394.74"/><line class="cls-13" x1="33.68" y1="319.48" x2="100.61" y2="319.48"/><line class="cls-13" x1="34.03" y1="339.08" x2="101.32" y2="339.08"/><line class="cls-13" x1="33.45" y1="375.92" x2="101.23" y2="375.92"/><line class="cls-13" x1="33.8" y1="394.7" x2="100.16" y2="394.7"/><line class="cls-13" x1="32.75" y1="357.44" x2="99.68" y2="357.44"/><rect class="cls-7" x="206.97" y="365.01" width="225.68" height="114.45" transform="translate(-35.78 -63.89) rotate(-0.1)"/><rect class="cls-18" x="206.97" y="365.01" width="225.68" height="114.45" transform="translate(-35.78 -63.89) rotate(-0.1)"/><rect class="cls-7" x="454.56" y="301.43" width="77.21" height="111.18"/><rect class="cls-18" x="454.56" y="301.43" width="77.21" height="111.18"/><rect class="cls-7" x="393.63" y="464.36" width="83.53" height="65.68"/><rect class="cls-18" x="393.63" y="464.36" width="83.53" height="65.68"/><line class="cls-13" x1="506.71" y1="390.55" x2="506.71" y2="412.03"/><line class="cls-13" x1="481.58" y1="368.43" x2="529.96" y2="368.43"/><line class="cls-13" x1="481.74" y1="348.15" x2="529.96" y2="348.15"/><line class="cls-6" x1="481.58" y1="324.03" x2="530.96" y2="324.03"/><line class="cls-13" x1="506.55" y1="303.5" x2="506.55" y2="324.19"/><line class="cls-13" x1="455.23" y1="338.83" x2="481.58" y2="338.83"/><line class="cls-13" x1="454.63" y1="320.53" x2="481.58" y2="320.53"/><line class="cls-13" x1="455.84" y1="375.91" x2="481.38" y2="375.91"/><line class="cls-13" x1="455.84" y1="393.2" x2="481.38" y2="393.2"/><polyline class="cls-6" points="481.58 303.57 481.58 412.35 473.63 412.35"/><line class="cls-6" x1="529.46" y1="390.4" x2="481.74" y2="390.4"/><line class="cls-13" x1="392.97" y1="498.98" x2="477.44" y2="498.98"/><line class="cls-13" x1="449.68" y1="464.41" x2="449.68" y2="530.15"/><line class="cls-13" x1="421.83" y1="464.87" x2="421.83" y2="530.71"/><polyline class="cls-7" points="277.89 299.52 278.05 386.22 278.09 412.81"/><polyline class="cls-19" points="277.89 299.52 278.05 386.22 278.09 412.81"/><line class="cls-7" x1="227.65" y1="302.51" x2="227.84" y2="413.25"/><line class="cls-19" x1="227.65" y1="302.51" x2="227.84" y2="413.25"/><line class="cls-7" x1="331.08" y1="302.51" x2="331.27" y2="413.25"/><line class="cls-19" x1="331.08" y1="302.51" x2="331.27" y2="413.25"/><line class="cls-13" x1="445.38" y1="359.68" x2="404.61" y2="359.68"/><rect class="cls-10" x="77.64" y="430.35" width="12.84" height="14.05"/><path class="cls-10" d="M81.07,435.65h5.61a.71.71,0,0,1,.71.71V442a.7.7,0,0,1-.7.7H81.07a.7.7,0,0,1-.7-.7v-5.62A.7.7,0,0,1,81.07,435.65Z"/><path class="cls-16" d="M81.07,435.65h5.61a.71.71,0,0,1,.71.71V442a.7.7,0,0,1-.7.7H81.07a.7.7,0,0,1-.7-.7v-5.62A.7.7,0,0,1,81.07,435.65Z"/><polygon class="cls-7" points="82.32 431.44 83.52 432.64 83.52 433.5 82.63 432.56 82.63 434.64 82.02 434.64 82.02 432.56 81.12 433.5 81.12 432.64 82.32 431.44"/><polygon class="cls-7" points="85.64 434.76 84.44 433.57 84.44 432.7 85.33 433.64 85.33 431.57 85.94 431.57 85.94 433.65 86.84 432.7 86.84 433.56 85.64 434.76"/><path class="cls-7" d="M121,502.58a.38.38,0,0,1-.38-.37.38.38,0,0,1,.75,0,.38.38,0,0,1-.37.37" transform="translate(-35.04 -64.46)"/><path class="cls-7" d="M120.38,503.51v.81c0,.16,0,.19-.13.19s-.15,0-.15-.19v-1c0-.45.18-.57.55-.57h.61c.36,0,.54.12.54.57v1c0,.15-.06.19-.15.19s-.13,0-.13-.19v-.81c0-.08,0-.1,0-.1s-.06,0-.06.1v2.73a.19.19,0,0,1-.2.21.19.19,0,0,1-.21-.2v-1.6s0-.08,0-.08,0,0,0,.08v1.6a.19.19,0,0,1-.21.2c-.06,0-.2,0-.2-.21v-2.73c0-.1,0-.1-.06-.1s-.05,0-.05.1" transform="translate(-35.04 -64.46)"/><path class="cls-7" d="M116.86,502.58a.38.38,0,0,1-.37-.37.37.37,0,0,1,.37-.37.36.36,0,0,1,.37.37.37.37,0,0,1-.37.37" transform="translate(-35.04 -64.46)"/><path class="cls-7" d="M116.29,503.51v.81c0,.16-.05.19-.14.19s-.14,0-.14-.19v-1c0-.45.17-.57.54-.57h.61c.37,0,.54.12.54.57v1c0,.15,0,.19-.14.19s-.14,0-.14-.19v-.81c0-.08,0-.1,0-.1s-.05,0-.05.1v2.73a.21.21,0,0,1-.41,0v-1.6s0-.08,0-.08-.06,0-.06.08v1.6a.21.21,0,0,1-.41,0v-2.73c0-.1,0-.1,0-.1s0,0,0,.1" transform="translate(-35.04 -64.46)"/><path class="cls-7" d="M118.92,502.57a.37.37,0,0,1-.38-.37.38.38,0,0,1,.75,0,.37.37,0,0,1-.37.37" transform="translate(-35.04 -64.46)"/><path class="cls-7" d="M119.13,502.71a.48.48,0,0,1,.51.4l.3,1c0,.1,0,.16-.07.19a.14.14,0,0,1-.17-.11l-.27-.91c0-.06,0-.09-.08-.07s0,.06,0,.12l.49,1.63h-.55v1.24c0,.19-.1.21-.14.21s-.17,0-.17-.2v-1.18c0-.05,0-.08,0-.08s-.06,0-.06.08v1.18c0,.18-.11.2-.15.2s-.15,0-.15-.21V505H118l.49-1.63c0-.06,0-.11,0-.12s-.07,0-.09.07l-.26.91a.15.15,0,0,1-.18.11.13.13,0,0,1-.07-.19l.31-1a.46.46,0,0,1,.5-.4Z" transform="translate(-35.04 -64.46)"/><polygon class="cls-7" points="493.55 241.77 474.56 241.77 462.81 241.78 463.05 266.42 476.15 266.42 476.02 254.55 493.73 254.37 493.55 241.77"/><polygon class="cls-8" points="493.55 241.77 474.56 241.77 462.81 241.78 463.05 266.42 476.15 266.42 476.02 254.55 493.73 254.37 493.55 241.77"/><line class="cls-14" x1="472.18" y1="265.28" x2="465.79" y2="265.28"/><line class="cls-14" x1="472.18" y1="264.26" x2="465.79" y2="264.26"/><line class="cls-14" x1="472.18" y1="263.34" x2="465.79" y2="263.34"/><line class="cls-14" x1="472.18" y1="262.42" x2="465.79" y2="262.42"/><line class="cls-14" x1="472.18" y1="261.39" x2="465.79" y2="261.39"/><rect class="cls-17" x="250.94" y="476.42" width="25.13" height="22.33"/><path class="cls-7" d="M304.84,544.82h4.59c.33,0,.44.11.44.45v5.46c0,.31-.11.42-.41.42h-9.24c-.29,0-.41-.12-.41-.41v-5.5c0-.3.12-.42.41-.42h4.62m-3.47,1a.77.77,0,0,0,0,.1.54.54,0,0,0,.51.59.55.55,0,0,0,.56-.54.54.54,0,0,0-.55-.55l-1.27,0c-.14,0-.27,0-.27.21s.12.22.27.22h.74" transform="translate(-35.04 -64.46)"/><path class="cls-7" d="M300.19,553.35c.08,0,.12,0,.15.06a3.2,3.2,0,0,0,1.59.74,13,13,0,0,0,6.34-.09,2.77,2.77,0,0,0,1.24-.63s.09,0,.18-.09a5,5,0,0,1-2.37,3.94,4.57,4.57,0,0,1-5.24-.33,4.9,4.9,0,0,1-1.89-3.6" transform="translate(-35.04 -64.46)"/><path class="cls-7" d="M307.41,557.78c.06.55.11,1.06.16,1.57s.11,1.12.17,1.67c0,.28,0,.33-.28.33h-5.08c-.26,0-.32,0-.29-.3.1-1.07.2-2.13.31-3.19,0,0,0-.05,0-.1a5,5,0,0,0,5,0" transform="translate(-35.04 -64.46)"/><path class="cls-7" d="M304.93,553.57a9.91,9.91,0,0,1-2.77-.32,2.24,2.24,0,0,1-.57-.25c-.22-.14-.22-.34,0-.47a3.3,3.3,0,0,1,.73-.3,10.78,10.78,0,0,1,2.94-.27,9.27,9.27,0,0,1,2.46.31,2.62,2.62,0,0,1,.46.19c.13.06.29.14.25.31a.51.51,0,0,1-.26.3,4.19,4.19,0,0,1-1,.3c-.75.11-1.52.17-2.28.26v-.06" transform="translate(-35.04 -64.46)"/><path class="cls-7" d="M304.83,544.33h-4.61a.48.48,0,0,1-.39-.17c-.07-.08-.07-.15,0-.2l1.16-.53a.63.63,0,0,1,.24,0h7.19a.83.83,0,0,1,.34.07l1,.48c.14.07.13.17,0,.24a.75.75,0,0,1-.38.13h-4.64" transform="translate(-35.04 -64.46)"/><rect class="cls-7" x="261.42" y="473.67" width="1.57" height="25.67"/><path class="cls-7" d="M291.38,546.8a1.22,1.22,0,1,1,1.34-1.21,1.28,1.28,0,0,1-1.34,1.21" transform="translate(-35.04 -64.46)"/><path class="cls-7" d="M289.07,550.7v2.62c0,.52-.19.63-.49.63s-.53-.14-.53-.63v-3.38c0-1.48.63-1.87,2-1.87h2.21c1.34,0,2,.39,2,1.87v3.38c0,.5-.19.63-.54.63s-.48-.13-.48-.63V550.7c0-.28-.1-.33-.18-.33s-.21,0-.21.33v8.88a.66.66,0,0,1-.73.68.67.67,0,0,1-.74-.66v-5.21c0-.12,0-.25-.19-.25s-.2.08-.2.25v5.21a.68.68,0,0,1-.76.66.65.65,0,0,1-.71-.68V550.7c0-.33-.12-.33-.2-.33s-.19,0-.19.33" transform="translate(-35.04 -64.46)"/><path class="cls-9" d="M303.13,549.41h-1l-.18.71h-.75l1.09-3.49H303l1.09,3.49h-.75Zm-.8-.59H303l-.33-1.24Z" transform="translate(-35.04 -64.46)"/><polygon class="cls-9" points="270.07 485.08 271.3 485.08 271.3 485.66 269.36 485.66 269.36 482.18 270.07 482.18 270.07 485.08"/><polygon class="cls-9" points="272.41 485.08 273.65 485.08 273.65 485.66 271.71 485.66 271.71 482.18 272.41 482.18 272.41 485.08"/><rect class="cls-17" x="248.97" y="543.55" width="22.42" height="21.94"/><rect class="cls-7" x="259.34" y="541.66" width="1.57" height="25.67"/><path class="cls-7" d="M289.37,613a1.22,1.22,0,1,1,1.35-1.21,1.29,1.29,0,0,1-1.35,1.21" transform="translate(-35.04 -64.46)"/><path class="cls-7" d="M287.19,617.31v2.62c0,.51-.19.62-.49.62s-.53-.13-.53-.62v-3.39c0-1.47.63-1.86,2-1.86h2.21c1.34,0,2,.39,2,1.86v3.39c0,.49-.19.62-.54.62s-.48-.13-.48-.62v-2.62c0-.29-.1-.33-.18-.33s-.21,0-.21.33v8.88a.66.66,0,0,1-.73.68.67.67,0,0,1-.74-.66V621c0-.11,0-.25-.19-.25s-.2.08-.2.25v5.22a.69.69,0,0,1-.76.66.65.65,0,0,1-.71-.68v-8.88c0-.33-.12-.33-.2-.33s-.19,0-.19.33" transform="translate(-35.04 -64.46)"/><path class="cls-7" d="M301.33,613a1.22,1.22,0,1,1,1.35-1.21,1.29,1.29,0,0,1-1.35,1.21" transform="translate(-35.04 -64.46)"/><path class="cls-7" d="M302,614.71a1.68,1.68,0,0,1,1.84,1.31l1.11,3.34c.13.32,0,.55-.26.62a.52.52,0,0,1-.63-.36l-1-3c-.06-.2-.12-.28-.29-.23s-.15.21-.08.39l1.79,5.34h-2v4c0,.62-.38.68-.53.68a.57.57,0,0,1-.6-.65v-3.85c0-.17-.08-.25-.19-.25s-.21.07-.21.24v3.85c0,.6-.41.66-.56.66s-.54-.06-.54-.68v-4h-2l1.79-5.34c.06-.18.13-.33-.05-.39s-.27,0-.33.23l-.95,3a.52.52,0,0,1-.63.36c-.28-.07-.4-.3-.27-.62l1.12-3.34a1.67,1.67,0,0,1,1.84-1.31Z" transform="translate(-35.04 -64.46)"/><line class="cls-20" x1="464.73" y1="451.83" x2="289.01" y2="512.07"/><polygon class="cls-9" points="456.56 454.33 456.28 463.12 468.42 447.83 468.52 447.77 468.46 447.77 468.51 447.72 468.4 447.77 451.88 448.29 456.56 454.33"/></g><text class="cls-2" transform="matrix(1, 0, 0, 1.07, 248.84, 524.72)">Monday-Thursday</text><text class="cls-2" transform="matrix(1, 0, 0, 1.07, 248.86, 535.72)"><tspan xml:space="preserve">Men’s &amp; Women’s  Restrooms</tspan></text><g class="cls-3"><line class="cls-20" x1="413.09" y1="293.06" x2="333.63" y2="198.99"/><polygon class="cls-9" points="410.38 289.95 404.23 291.76 419.18 297.77 419.26 297.84 419.23 297.79 419.29 297.81 419.21 297.74 412.86 284.87 410.38 289.95"/><rect class="cls-17" x="250.29" y="190.05" width="25.13" height="22.33"/><path class="cls-7" d="M304.18,258.45h4.6c.32,0,.43.11.43.44v5.46c0,.31-.11.43-.41.43h-9.23c-.29,0-.41-.12-.41-.42v-5.49c0-.3.12-.42.4-.42h4.62m-3.46,1v.09a.55.55,0,0,0,.52.6.54.54,0,0,0,.55-.54.52.52,0,0,0-.55-.55L300,259c-.15,0-.27,0-.27.21s.12.22.26.22h.75" transform="translate(-35.04 -64.46)"/><path class="cls-7" d="M299.53,267a.62.62,0,0,1,.15.06,3.17,3.17,0,0,0,1.59.75,13,13,0,0,0,6.34-.09,2.73,2.73,0,0,0,1.24-.64A1.12,1.12,0,0,1,309,267a5,5,0,0,1-2.37,3.94,4.58,4.58,0,0,1-5.24-.33,5,5,0,0,1-1.89-3.61" transform="translate(-35.04 -64.46)"/><path class="cls-7" d="M306.75,271.4c.06.56.12,1.07.17,1.58s.11,1.11.16,1.67c0,.28,0,.33-.28.33h-5.08c-.26,0-.31-.05-.29-.31.1-1.06.21-2.12.31-3.19l0-.09a5,5,0,0,0,5,0" transform="translate(-35.04 -64.46)"/><path class="cls-7" d="M304.27,267.2a10.39,10.39,0,0,1-2.77-.32,2.44,2.44,0,0,1-.57-.26c-.21-.13-.22-.33,0-.46a2.88,2.88,0,0,1,.73-.3,11.16,11.16,0,0,1,2.94-.28,9.77,9.77,0,0,1,2.46.32,2.92,2.92,0,0,1,.46.18c.12.07.29.15.24.31a.53.53,0,0,1-.26.31,4.47,4.47,0,0,1-.94.3c-.76.11-1.52.17-2.28.25Z" transform="translate(-35.04 -64.46)"/><path class="cls-7" d="M304.18,258h-4.62a.45.45,0,0,1-.39-.17c-.06-.07-.07-.14,0-.19l1.16-.53a.58.58,0,0,1,.23,0h7.19a.77.77,0,0,1,.34.07c.35.15.69.32,1,.48.15.06.14.17,0,.23a.79.79,0,0,1-.39.13h-4.63" transform="translate(-35.04 -64.46)"/><rect class="cls-7" x="260.77" y="187.3" width="1.57" height="29.67"/><path class="cls-7" d="M290.72,260.43a1.22,1.22,0,1,1,1.35-1.21,1.29,1.29,0,0,1-1.35,1.21" transform="translate(-35.04 -64.46)"/><path class="cls-7" d="M288.42,264.33V267c0,.52-.19.62-.49.62s-.53-.13-.53-.62v-3.38c0-1.48.63-1.87,2-1.87h2.21c1.34,0,2,.39,2,1.87V267c0,.5-.19.62-.54.62s-.49-.12-.49-.62v-2.62c0-.29-.09-.33-.18-.33s-.2,0-.2.33v8.88a.66.66,0,0,1-.73.68.67.67,0,0,1-.74-.66V268c0-.12,0-.26-.2-.26s-.19.09-.19.26v5.21a.68.68,0,0,1-.77.66.64.64,0,0,1-.7-.68v-8.88c0-.33-.12-.33-.21-.33s-.18,0-.18.33" transform="translate(-35.04 -64.46)"/><path class="cls-9" d="M302.48,263h-1l-.19.71h-.74l1.09-3.49h.64l1.1,3.49h-.75Zm-.81-.59h.65l-.32-1.24Z" transform="translate(-35.04 -64.46)"/><polygon class="cls-9" points="269.41 198.71 270.65 198.71 270.65 199.29 268.71 199.29 268.71 195.8 269.41 195.8 269.41 198.71"/><polygon class="cls-9" points="271.76 198.71 272.99 198.71 272.99 199.29 271.06 199.29 271.06 195.8 271.76 195.8 271.76 198.71"/><rect class="cls-17" x="249.13" y="133.31" width="22.42" height="21.95"/><rect class="cls-7" x="259.51" y="131.42" width="1.57" height="25.67"/><path class="cls-7" d="M289.76,202.75a1.21,1.21,0,1,1,0-2.41,1.21,1.21,0,1,1,0,2.41" transform="translate(-35.04 -64.46)"/><path class="cls-7" d="M287.58,207v2.62c0,.52-.2.63-.5.63s-.52-.14-.52-.63v-3.38c0-1.48.62-1.87,2-1.87h2.2c1.35,0,2,.39,2,1.87v3.38c0,.5-.19.63-.54.63s-.48-.13-.48-.63V207c0-.28-.09-.33-.18-.33s-.2.05-.2.33v8.88a.74.74,0,0,1-1.47,0v-5.21c0-.12,0-.25-.2-.25s-.2.08-.2.25v5.21a.67.67,0,0,1-.76.66.64.64,0,0,1-.7-.68V207c0-.33-.13-.33-.21-.33s-.18,0-.18.33" transform="translate(-35.04 -64.46)"/><path class="cls-7" d="M301.35,202.67a1.22,1.22,0,1,1,1.35-1.21,1.29,1.29,0,0,1-1.35,1.21" transform="translate(-35.04 -64.46)"/><path class="cls-7" d="M302,204.35a1.68,1.68,0,0,1,1.84,1.31L305,209c.13.32,0,.55-.27.62a.51.51,0,0,1-.62-.36l-1-3c-.06-.2-.12-.28-.29-.23s-.15.21-.08.39l1.79,5.34h-2v4c0,.62-.38.68-.53.68a.57.57,0,0,1-.6-.65V212c0-.17-.08-.25-.19-.25s-.21.07-.21.24v3.85c0,.6-.41.66-.56.66s-.55-.06-.55-.68v-4h-2l1.8-5.34c.06-.18.13-.33,0-.39s-.27,0-.33.23l-.95,3a.52.52,0,0,1-.63.36c-.28-.07-.4-.3-.27-.62l1.11-3.34a1.69,1.69,0,0,1,1.85-1.31Z" transform="translate(-35.04 -64.46)"/></g><text class="cls-2" transform="matrix(1, 0, 0, 1.07, 249.15, 113.9)">Saturday-Sunday</text><text class="cls-2" transform="matrix(1, 0, 0, 1.07, 249.17, 124.9)"><tspan xml:space="preserve">Men’s &amp; Women’s  Restrooms</tspan></text><text class="cls-21" transform="translate(39.62 315.49)">513a</text><text class="cls-21" transform="translate(39.62 333.49)">513b</text><text class="cls-21" transform="translate(39.62 351.49)">513c</text><text class="cls-21" transform="translate(39.62 369.49)">513d</text><text class="cls-21" transform="translate(39.62 387.49)">513e</text><text class="cls-21" transform="translate(39.62 405.49)">513f</text><text class="cls-21" transform="translate(73.62 315.99)">514a</text><text class="cls-21" transform="translate(73.62 333.99)">514b</text><text class="cls-21" transform="translate(73.62 351.99)">514c</text><text class="cls-21" transform="translate(73.62 369.99)">515a</text><text class="cls-21" transform="translate(73.62 387.99)">515b</text><text class="cls-21" transform="translate(73.62 405.99)">515c</text><text class="cls-21" transform="translate(129.12 315.99)">516a</text><text class="cls-21" transform="translate(129.12 333.99)">516b</text><text class="cls-21" transform="translate(129.12 360.99)">516c</text><text class="cls-21" transform="translate(129.12 387.99)">516d</text><text class="cls-21" transform="translate(129.12 405.99)">516e</text><text class="cls-21" transform="translate(482.79 318.99)"><tspan class="cls-22">523</tspan><tspan class="cls-23" x="16.4" y="0">a</tspan><tspan class="cls-22" x="21.96" y="0" xml:space="preserve"> 523</tspan><tspan x="40.72" y="0">b</tspan></text><text class="cls-21" transform="translate(482.79 336.99)"><tspan class="cls-22" xml:space="preserve">     524</tspan><tspan x="28.19" y="0">a</tspan></text><text class="cls-21" transform="translate(482.79 343.99)"><tspan class="cls-22" xml:space="preserve">    </tspan><tspan x="9.43" y="0"> </tspan></text><text class="cls-21" transform="translate(482.79 361.99)"><tspan class="cls-22" xml:space="preserve">     524</tspan><tspan x="28.19" y="0">b</tspan></text><text class="cls-21" transform="translate(482.79 379.99)"><tspan class="cls-22" xml:space="preserve">     524</tspan><tspan x="28.19" y="0">c</tspan></text><text class="cls-21" transform="translate(482.79 403.99)"><tspan class="cls-22">525</tspan><tspan class="cls-23" x="16.4" y="0">a</tspan><tspan class="cls-22" x="21.96" y="0" xml:space="preserve"> 525</tspan><tspan x="40.72" y="0">b</tspan></text><text class="cls-21" transform="translate(189.12 361.5)"><tspan xml:space="preserve">517a           517b           517c              517d</tspan></text><text class="cls-21" transform="translate(411.62 316.49)">518a</text><text class="cls-21" transform="translate(411.62 334.49)">518b</text><text class="cls-21" transform="translate(411.62 354.49)">518c</text><text class="cls-21" transform="translate(411.62 374.49)">519a</text><text class="cls-21" transform="translate(411.62 393.49)">519b</text><text class="cls-21" transform="translate(457.12 316.33)"><tspan class="cls-24">521</tspan><tspan x="16.85" y="0">a</tspan></text><text class="cls-21" transform="translate(457.12 334.33)"><tspan class="cls-24">521</tspan><tspan x="16.85" y="0">b</tspan></text><text class="cls-21" transform="translate(457.12 352.33)"><tspan class="cls-24">521</tspan><tspan x="16.85" y="0">c</tspan></text><text class="cls-21" transform="translate(457.12 370.33)"><tspan class="cls-24">522</tspan><tspan x="16.85" y="0">a</tspan></text><text class="cls-21" transform="translate(457.12 388.33)"><tspan class="cls-24">522</tspan><tspan x="16.85" y="0">b</tspan></text><text class="cls-21" transform="translate(457.12 406.33)"><tspan class="cls-24">522</tspan><tspan x="16.85" y="0">c</tspan></text><text class="cls-21" transform="translate(396.62 487)"><tspan class="cls-24">520</tspan><tspan class="cls-25" x="16.85" y="0">a</tspan><tspan class="cls-24" x="22.55" y="0" xml:space="preserve">  520</tspan><tspan class="cls-26" x="44.42" y="0">b</tspan><tspan class="cls-24" x="50.55" y="0" xml:space="preserve">  520</tspan><tspan x="72.42" y="0">c</tspan></text><text class="cls-21" transform="translate(396.62 517.5)"><tspan class="cls-24">520</tspan><tspan class="cls-25" x="16.85" y="0">d</tspan><tspan class="cls-24" x="22.98" y="0" xml:space="preserve">  520</tspan><tspan class="cls-26" x="44.85" y="0">e</tspan><tspan class="cls-24" x="50.52" y="0" xml:space="preserve">  520</tspan><tspan x="72.38" y="0">f</tspan></text><text class="cls-27" transform="translate(233.63 19.36) scale(1 1.07)">LEVEL 5</text><text class="cls-28" transform="translate(201.77 44.22) scale(1 1.07)">Rooms 513 to 525</text><g class="cls-3"><line class="cls-13" x1="456.87" y1="357.96" x2="482.41" y2="357.96"/></g></svg>